<?xml version="1.0" encoding="UTF-8" standalone="yes"?>
<!DOCTYPE svg PUBLIC "-//W3C//DTD SVG 1.0//EN" "http://www.w3.org/TR/2001/REC-SVG-20010904/DTD/svg10.dtd">
<svg height="300" width="800" xmlns="http://www.w3.org/2000/svg" xmlns:svg="http://www.w3.org/2000/svg" xmlns:xlink="http://www.w3.org/1999/xlink">
	<g id="n8774156">
		<g id="axis0962068" />
		<g id="axisn2607409">
			<line style="stroke: black; stroke-width: 2" x1="30" x2="770" y1="270" y2="270" />
			<line style="stroke: black; stroke-width: 2" x1="30" x2="30" y1="30" y2="270" />
			<line style="stroke: black; stroke-width: 2" x1="30" x2="30" y1="270" y2="273.75" />
			<text transform="rotate(90,30,277.5)" x="30" y="277.5"></text>
			<text transform="rotate(90,29.99926,277.5)" x="29.99926" y="277.5"></text>
			<line style="stroke: black; stroke-width: 2" x1="104" x2="104" y1="270" y2="273.75" />
			<text transform="rotate(90,104,277.5)" x="104" y="277.5"></text>
			<text transform="rotate(90,103.99926,277.5)" x="103.99926" y="277.5"></text>
			<line style="stroke: black; stroke-width: 2" x1="178" x2="178" y1="270" y2="273.75" />
			<text transform="rotate(90,178,277.5)" x="178" y="277.5"></text>
			<text transform="rotate(90,177.99926,277.5)" x="177.99926" y="277.5"></text>
			<line style="stroke: black; stroke-width: 2" x1="252" x2="252" y1="270" y2="273.75" />
			<text transform="rotate(90,252,277.5)" x="252" y="277.5"></text>
			<text transform="rotate(90,251.99926,277.5)" x="251.99926" y="277.5"></text>
			<line style="stroke: black; stroke-width: 2" x1="326" x2="326" y1="270" y2="273.75" />
			<text transform="rotate(90,326,277.5)" x="326" y="277.5"></text>
			<text transform="rotate(90,325.99926,277.5)" x="325.99926" y="277.5"></text>
			<line style="stroke: black; stroke-width: 2" x1="400" x2="400" y1="270" y2="273.75" />
			<text transform="rotate(90,400,277.5)" x="400" y="277.5"></text>
			<text transform="rotate(90,399.99926,277.5)" x="399.99926" y="277.5"></text>
			<line style="stroke: black; stroke-width: 2" x1="474" x2="474" y1="270" y2="273.75" />
			<text transform="rotate(90,474,277.5)" x="474" y="277.5"></text>
			<text transform="rotate(90,473.99926,277.5)" x="473.99926" y="277.5"></text>
			<line style="stroke: black; stroke-width: 2" x1="548" x2="548" y1="270" y2="273.75" />
			<text transform="rotate(90,548,277.5)" x="548" y="277.5"></text>
			<text transform="rotate(90,547.99926,277.5)" x="547.99926" y="277.5"></text>
			<line style="stroke: black; stroke-width: 2" x1="622" x2="622" y1="270" y2="273.75" />
			<text transform="rotate(90,622,277.5)" x="622" y="277.5"></text>
			<text transform="rotate(90,621.99926,277.5)" x="621.99926" y="277.5"></text>
			<line style="stroke: black; stroke-width: 2" x1="696" x2="696" y1="270" y2="273.75" />
			<text transform="rotate(90,696,277.5)" x="696" y="277.5"></text>
			<text transform="rotate(90,695.99926,277.5)" x="695.99926" y="277.5"></text>
			<line style="stroke: black; stroke-width: 2" x1="770" x2="770" y1="270" y2="273.75" />
			<text transform="rotate(90,770,277.5)" x="770" y="277.5"></text>
			<text transform="rotate(90,769.99926,277.5)" x="769.99926" y="277.5"></text>
			<line style="stroke: black; stroke-width: 2" x1="30" x2="26.25" y1="270" y2="270" />
			<text x="0" y="270"></text>
			<text x="29.99926" y="270"></text>
			<line style="stroke: black; stroke-width: 2" x1="30" x2="26.25" y1="230" y2="230" />
			<text x="0" y="230"></text>
			<text x="30.01406" y="230"></text>
			<line style="stroke: black; stroke-width: 2" x1="30" x2="26.25" y1="190" y2="190" />
			<text x="0" y="190"></text>
			<text x="30.02886" y="190"></text>
			<line style="stroke: black; stroke-width: 2" x1="30" x2="26.25" y1="150" y2="150" />
			<text x="0" y="150"></text>
			<text x="30.04366" y="150"></text>
			<line style="stroke: black; stroke-width: 2" x1="30" x2="26.25" y1="110" y2="110" />
			<text x="0" y="110"></text>
			<text x="30.05846" y="110"></text>
			<line style="stroke: black; stroke-width: 2" x1="30" x2="26.25" y1="70" y2="70" />
			<text x="0" y="70"></text>
			<text x="30.07326" y="70"></text>
			<line style="stroke: black; stroke-width: 2" x1="30" x2="26.25" y1="30" y2="30" />
			<text x="0" y="30"></text>
			<text x="30.08806" y="30"></text>
		</g>
	</g>
	<text fill="black" stroke="black" x="40" y="285">0</text>
	<text fill="black" stroke="black" x="380" y="285">250000</text>
	<text fill="black" stroke="black" x="730" y="285">500000</text>
	<text fill="black" stroke="black" x="10" y="260">0</text>
	<text fill="black" stroke="black" x="10" y="160">30</text>
	<text fill="black" stroke="black" x="10" y="45">60</text>
	<g id="n5225569">
		<g id="line1349475" />
		<g id="linen2941411">
			<line style="fill: green; stroke: green; stroke-width: 2" x1="30" x2="30" y1="270" y2="238" />
			<line style="fill: green; stroke: green; stroke-width: 2" x1="30" x2="326" y1="238" y2="102" />
			<line style="fill: green; stroke: green; stroke-width: 2" x1="326" x2="770" y1="102" y2="102" />
			<line style="fill: green; stroke: green; stroke-width: 2" x1="770" x2="770" y1="102" y2="30" />
		</g>
	</g>
	<text fill="green" stroke="green" x="50" y="50">Slant-8-42-200 marginal rate</text>
	<g id="n5014029">
		<g id="line8270101" />
		<g id="linen7752475">
			<line style="fill: blue; stroke: blue; stroke-width: 2" x1="30" x2="30" y1="270" y2="238" />
			<line style="fill: blue; stroke: blue; stroke-width: 2" x1="30" x2="326" y1="238" y2="170" />
			<line style="fill: blue; stroke: blue; stroke-width: 2" x1="326" x2="338.358" y1="170" y2="167.274778017759" />
			<line style="fill: blue; stroke: blue; stroke-width: 2" x1="338.358" x2="340.8" y1="167.274778017759" y2="166.761904761905" />
			<line style="fill: blue; stroke: blue; stroke-width: 2" x1="340.8" x2="344.5" y1="166.761904761905" y2="166" />
			<line style="fill: blue; stroke: blue; stroke-width: 2" x1="344.5" x2="355.6" y1="166" y2="163.818181818182" />
			<line style="fill: blue; stroke: blue; stroke-width: 2" x1="355.6" x2="370.4" y1="163.818181818182" y2="161.130434782609" />
			<line style="fill: blue; stroke: blue; stroke-width: 2" x1="370.4" x2="371.066" y1="161.130434782609" y2="161.014970709481" />
			<line style="fill: blue; stroke: blue; stroke-width: 2" x1="371.066" x2="375.358" y1="161.014970709481" y2="160.281551317763" />
			<line style="fill: blue; stroke: blue; stroke-width: 2" x1="375.358" x2="378.318" y1="160.281551317763" y2="159.786275759507" />
			<line style="fill: blue; stroke: blue; stroke-width: 2" x1="378.318" x2="385.2" y1="159.786275759507" y2="158.666666666667" />
			<line style="fill: blue; stroke: blue; stroke-width: 2" x1="385.2" x2="400" y1="158.666666666667" y2="156.4" />
			<line style="fill: blue; stroke: blue; stroke-width: 2" x1="400" x2="414.8" y1="156.4" y2="154.307692307692" />
			<line style="fill: blue; stroke: blue; stroke-width: 2" x1="414.8" x2="429.6" y1="154.307692307692" y2="152.37037037037" />
			<line style="fill: blue; stroke: blue; stroke-width: 2" x1="429.6" x2="437" y1="152.37037037037" y2="151.454545454545" />
			<line style="fill: blue; stroke: blue; stroke-width: 2" x1="437" x2="444.4" y1="151.454545454545" y2="150.571428571429" />
			<line style="fill: blue; stroke: blue; stroke-width: 2" x1="444.4" x2="459.2" y1="150.571428571429" y2="148.896551724138" />
			<line style="fill: blue; stroke: blue; stroke-width: 2" x1="459.2" x2="474" y1="148.896551724138" y2="147.333333333333" />
			<line style="fill: blue; stroke: blue; stroke-width: 2" x1="474" x2="548" y1="147.333333333333" y2="140.857142857143" />
			<line style="fill: blue; stroke: blue; stroke-width: 2" x1="548" x2="607.2" y1="140.857142857143" y2="136.871794871795" />
			<line style="fill: blue; stroke: blue; stroke-width: 2" x1="607.2" x2="622" y1="136.871794871795" y2="136" />
			<line style="fill: blue; stroke: blue; stroke-width: 2" x1="622" x2="646.716" y1="136" y2="134.637389008879" />
			<line style="fill: blue; stroke: blue; stroke-width: 2" x1="646.716" x2="649.232" y1="134.637389008879" y2="134.504780114723" />
			<line style="fill: blue; stroke: blue; stroke-width: 2" x1="649.232" x2="687.934" y1="134.504780114723" y2="132.592734225621" />
			<line style="fill: blue; stroke: blue; stroke-width: 2" x1="687.934" x2="696" y1="132.592734225621" y2="132.222222222222" />
			<line style="fill: blue; stroke: blue; stroke-width: 2" x1="696" x2="726.636" y1="132.222222222222" y2="130.893137879754" />
			<line style="fill: blue; stroke: blue; stroke-width: 2" x1="726.636" x2="770" y1="130.893137879754" y2="129.2" />
			<line style="fill: blue; stroke: blue; stroke-width: 2" x1="770" x2="770" y1="129.2" y2="30" />
		</g>
	</g>
	<text fill="blue" stroke="blue" x="50" y="70">Slant-8-42-200 effective rate</text>
	<g id="n1804558">
		<g id="line8178095" />
		<g id="linen1746304">
			<line style="fill: red; stroke: red; stroke-width: 2" x1="30" x2="30" y1="270" y2="238" />
			<line style="fill: red; stroke: red; stroke-width: 2" x1="30" x2="474" y1="238" y2="102" />
			<line style="fill: red; stroke: red; stroke-width: 2" x1="474" x2="770" y1="102" y2="102" />
			<line style="fill: red; stroke: red; stroke-width: 2" x1="770" x2="770" y1="102" y2="30" />
		</g>
	</g>
	<text fill="red" stroke="red" x="50" y="90">Slant-8-42-300 marginal rate</text>
	<g id="n6989015">
		<g id="line8163686" />
		<g id="linen2528474">
			<line style="fill: orange; stroke: orange; stroke-width: 2" x1="30" x2="30" y1="270" y2="238" />
			<line style="fill: orange; stroke: orange; stroke-width: 2" x1="30" x2="474" y1="238" y2="170" />
			<line style="fill: orange; stroke: orange; stroke-width: 2" x1="474" x2="548" y1="170" y2="160.285714285714" />
			<line style="fill: orange; stroke: orange; stroke-width: 2" x1="548" x2="607.2" y1="160.285714285714" y2="154.307692307692" />
			<line style="fill: orange; stroke: orange; stroke-width: 2" x1="607.2" x2="622" y1="154.307692307692" y2="153" />
			<line style="fill: orange; stroke: orange; stroke-width: 2" x1="622" x2="646.716" y1="153" y2="150.956083513319" />
			<line style="fill: orange; stroke: orange; stroke-width: 2" x1="646.716" x2="649.232" y1="150.956083513319" y2="150.757170172084" />
			<line style="fill: orange; stroke: orange; stroke-width: 2" x1="649.232" x2="687.934" y1="150.757170172084" y2="147.889101338432" />
			<line style="fill: orange; stroke: orange; stroke-width: 2" x1="687.934" x2="696" y1="147.889101338432" y2="147.333333333333" />
			<line style="fill: orange; stroke: orange; stroke-width: 2" x1="696" x2="726.636" y1="147.333333333333" y2="145.33970681963" />
			<line style="fill: orange; stroke: orange; stroke-width: 2" x1="726.636" x2="770" y1="145.33970681963" y2="142.8" />
			<line style="fill: orange; stroke: orange; stroke-width: 2" x1="770" x2="770" y1="142.8" y2="30" />
		</g>
	</g>
	<text fill="orange" stroke="orange" x="50" y="110">Slant-8-42-300 effective rate</text>
	<!-- 
	Generated using the Perl SVG Module V2.78
	by Ronan Oger
	Info: http://www.roitsystems.com/
 -->
</svg>