<?xml version="1.0" encoding="UTF-8" standalone="yes"?>
<!DOCTYPE svg PUBLIC "-//W3C//DTD SVG 1.0//EN" "http://www.w3.org/TR/2001/REC-SVG-20010904/DTD/svg10.dtd">
<svg height="300" width="800" xmlns="http://www.w3.org/2000/svg" xmlns:svg="http://www.w3.org/2000/svg" xmlns:xlink="http://www.w3.org/1999/xlink">
	<g id="n9120731">
		<g id="axis8400916" />
		<g id="axisn2169817">
			<line style="stroke: black; stroke-width: 2" x1="30" x2="770" y1="270" y2="270" />
			<line style="stroke: black; stroke-width: 2" x1="30" x2="30" y1="30" y2="270" />
			<line style="stroke: black; stroke-width: 2" x1="30" x2="30" y1="270" y2="273.75" />
			<text transform="rotate(90,30,277.5)" x="30" y="277.5"></text>
			<text transform="rotate(90,29.99926,277.5)" x="29.99926" y="277.5"></text>
			<line style="stroke: black; stroke-width: 2" x1="104" x2="104" y1="270" y2="273.75" />
			<text transform="rotate(90,104,277.5)" x="104" y="277.5"></text>
			<text transform="rotate(90,103.99926,277.5)" x="103.99926" y="277.5"></text>
			<line style="stroke: black; stroke-width: 2" x1="178" x2="178" y1="270" y2="273.75" />
			<text transform="rotate(90,178,277.5)" x="178" y="277.5"></text>
			<text transform="rotate(90,177.99926,277.5)" x="177.99926" y="277.5"></text>
			<line style="stroke: black; stroke-width: 2" x1="252" x2="252" y1="270" y2="273.75" />
			<text transform="rotate(90,252,277.5)" x="252" y="277.5"></text>
			<text transform="rotate(90,251.99926,277.5)" x="251.99926" y="277.5"></text>
			<line style="stroke: black; stroke-width: 2" x1="326" x2="326" y1="270" y2="273.75" />
			<text transform="rotate(90,326,277.5)" x="326" y="277.5"></text>
			<text transform="rotate(90,325.99926,277.5)" x="325.99926" y="277.5"></text>
			<line style="stroke: black; stroke-width: 2" x1="400" x2="400" y1="270" y2="273.75" />
			<text transform="rotate(90,400,277.5)" x="400" y="277.5"></text>
			<text transform="rotate(90,399.99926,277.5)" x="399.99926" y="277.5"></text>
			<line style="stroke: black; stroke-width: 2" x1="474" x2="474" y1="270" y2="273.75" />
			<text transform="rotate(90,474,277.5)" x="474" y="277.5"></text>
			<text transform="rotate(90,473.99926,277.5)" x="473.99926" y="277.5"></text>
			<line style="stroke: black; stroke-width: 2" x1="548" x2="548" y1="270" y2="273.75" />
			<text transform="rotate(90,548,277.5)" x="548" y="277.5"></text>
			<text transform="rotate(90,547.99926,277.5)" x="547.99926" y="277.5"></text>
			<line style="stroke: black; stroke-width: 2" x1="622" x2="622" y1="270" y2="273.75" />
			<text transform="rotate(90,622,277.5)" x="622" y="277.5"></text>
			<text transform="rotate(90,621.99926,277.5)" x="621.99926" y="277.5"></text>
			<line style="stroke: black; stroke-width: 2" x1="696" x2="696" y1="270" y2="273.75" />
			<text transform="rotate(90,696,277.5)" x="696" y="277.5"></text>
			<text transform="rotate(90,695.99926,277.5)" x="695.99926" y="277.5"></text>
			<line style="stroke: black; stroke-width: 2" x1="770" x2="770" y1="270" y2="273.75" />
			<text transform="rotate(90,770,277.5)" x="770" y="277.5"></text>
			<text transform="rotate(90,769.99926,277.5)" x="769.99926" y="277.5"></text>
			<line style="stroke: black; stroke-width: 2" x1="30" x2="26.25" y1="270" y2="270" />
			<text x="0" y="270"></text>
			<text x="29.99926" y="270"></text>
			<line style="stroke: black; stroke-width: 2" x1="30" x2="26.25" y1="230" y2="230" />
			<text x="0" y="230"></text>
			<text x="30.01406" y="230"></text>
			<line style="stroke: black; stroke-width: 2" x1="30" x2="26.25" y1="190" y2="190" />
			<text x="0" y="190"></text>
			<text x="30.02886" y="190"></text>
			<line style="stroke: black; stroke-width: 2" x1="30" x2="26.25" y1="150" y2="150" />
			<text x="0" y="150"></text>
			<text x="30.04366" y="150"></text>
			<line style="stroke: black; stroke-width: 2" x1="30" x2="26.25" y1="110" y2="110" />
			<text x="0" y="110"></text>
			<text x="30.05846" y="110"></text>
			<line style="stroke: black; stroke-width: 2" x1="30" x2="26.25" y1="70" y2="70" />
			<text x="0" y="70"></text>
			<text x="30.07326" y="70"></text>
			<line style="stroke: black; stroke-width: 2" x1="30" x2="26.25" y1="30" y2="30" />
			<text x="0" y="30"></text>
			<text x="30.08806" y="30"></text>
		</g>
	</g>
	<text fill="black" stroke="black" x="40" y="285">0</text>
	<text fill="black" stroke="black" x="380" y="285">250000</text>
	<text fill="black" stroke="black" x="730" y="285">500000</text>
	<text fill="black" stroke="black" x="10" y="260">0</text>
	<text fill="black" stroke="black" x="10" y="160">30</text>
	<text fill="black" stroke="black" x="10" y="45">60</text>
	<g id="n9880374">
		<g id="line5814673" />
		<g id="linen0233521">
			<line style="fill: green; stroke: green; stroke-width: 2" x1="30" x2="30" y1="270" y2="230" />
			<line style="fill: green; stroke: green; stroke-width: 2" x1="30" x2="44.097" y1="230" y2="230" />
			<line style="fill: green; stroke: green; stroke-width: 2" x1="44.097" x2="44.097" y1="230" y2="222" />
			<line style="fill: green; stroke: green; stroke-width: 2" x1="44.097" x2="87.276" y1="222" y2="222" />
			<line style="fill: green; stroke: green; stroke-width: 2" x1="87.276" x2="87.276" y1="222" y2="180" />
			<line style="fill: green; stroke: green; stroke-width: 2" x1="87.276" x2="118.8" y1="180" y2="180" />
			<line style="fill: green; stroke: green; stroke-width: 2" x1="118.8" x2="118.8" y1="180" y2="170" />
			<line style="fill: green; stroke: green; stroke-width: 2" x1="118.8" x2="281.6" y1="170" y2="170" />
			<line style="fill: green; stroke: green; stroke-width: 2" x1="281.6" x2="281.6" y1="170" y2="140" />
			<line style="fill: green; stroke: green; stroke-width: 2" x1="281.6" x2="326" y1="140" y2="140" />
			<line style="fill: green; stroke: green; stroke-width: 2" x1="326" x2="326" y1="140" y2="130" />
			<line style="fill: green; stroke: green; stroke-width: 2" x1="326" x2="770" y1="130" y2="130" />
			<line style="fill: green; stroke: green; stroke-width: 2" x1="770" x2="770" y1="130" y2="116" />
			<line style="fill: green; stroke: green; stroke-width: 2" x1="770" x2="770" y1="116" y2="116" />
			<line style="fill: green; stroke: green; stroke-width: 2" x1="770" x2="770" y1="116" y2="30" />
		</g>
	</g>
	<text fill="green" stroke="green" x="50" y="50">2017-senate-single marginal rate</text>
	<g id="n8584516">
		<g id="line0221471" />
		<g id="linen0654335">
			<line style="fill: blue; stroke: blue; stroke-width: 2" x1="30" x2="30" y1="270" y2="230" />
			<line style="fill: blue; stroke: blue; stroke-width: 2" x1="30" x2="37.4" y1="230" y2="230" />
			<line style="fill: blue; stroke: blue; stroke-width: 2" x1="37.4" x2="43.801" y1="230" y2="230" />
			<line style="fill: blue; stroke: blue; stroke-width: 2" x1="43.801" x2="44.097" y1="230" y2="230" />
			<line style="fill: blue; stroke: blue; stroke-width: 2" x1="44.097" x2="44.8" y1="230" y2="229.62" />
			<line style="fill: blue; stroke: blue; stroke-width: 2" x1="44.8" x2="49.758" y1="229.62" y2="227.707865168539" />
			<line style="fill: blue; stroke: blue; stroke-width: 2" x1="49.758" x2="50.128" y1="227.707865168539" y2="227.602941176471" />
			<line style="fill: blue; stroke: blue; stroke-width: 2" x1="50.128" x2="52.2" y1="227.602941176471" y2="227.08" />
			<line style="fill: blue; stroke: blue; stroke-width: 2" x1="52.2" x2="57.306" y1="227.08" y2="226.130081300813" />
			<line style="fill: blue; stroke: blue; stroke-width: 2" x1="57.306" x2="57.602" y1="226.130081300813" y2="226.085790884719" />
			<line style="fill: blue; stroke: blue; stroke-width: 2" x1="57.602" x2="58.194" y1="226.085790884719" y2="226" />
			<line style="fill: blue; stroke: blue; stroke-width: 2" x1="58.194" x2="59.6" y1="226" y2="225.81" />
			<line style="fill: blue; stroke: blue; stroke-width: 2" x1="59.6" x2="67" y1="225.81" y2="225.048" />
			<line style="fill: blue; stroke: blue; stroke-width: 2" x1="67" x2="74.4" y1="225.048" y2="224.54" />
			<line style="fill: blue; stroke: blue; stroke-width: 2" x1="74.4" x2="81.8" y1="224.54" y2="224.177142857143" />
			<line style="fill: blue; stroke: blue; stroke-width: 2" x1="81.8" x2="86.166" y1="224.177142857143" y2="224.00790513834" />
			<line style="fill: blue; stroke: blue; stroke-width: 2" x1="86.166" x2="87.276" y1="224.00790513834" y2="223.968992248062" />
			<line style="fill: blue; stroke: blue; stroke-width: 2" x1="87.276" x2="89.2" y1="223.968992248062" y2="222.54" />
			<line style="fill: blue; stroke: blue; stroke-width: 2" x1="89.2" x2="96.6" y1="222.54" y2="217.813333333333" />
			<line style="fill: blue; stroke: blue; stroke-width: 2" x1="96.6" x2="104" y1="217.813333333333" y2="214.032" />
			<line style="fill: blue; stroke: blue; stroke-width: 2" x1="104" x2="105.184" y1="214.032" y2="213.496062992126" />
			<line style="fill: blue; stroke: blue; stroke-width: 2" x1="105.184" x2="106.664" y1="213.496062992126" y2="212.849420849421" />
			<line style="fill: blue; stroke: blue; stroke-width: 2" x1="106.664" x2="111.4" y1="212.849420849421" y2="210.938181818182" />
			<line style="fill: blue; stroke: blue; stroke-width: 2" x1="111.4" x2="118.8" y1="210.938181818182" y2="208.36" />
			<line style="fill: blue; stroke: blue; stroke-width: 2" x1="118.8" x2="126.2" y1="208.36" y2="205.409230769231" />
			<line style="fill: blue; stroke: blue; stroke-width: 2" x1="126.2" x2="133.6" y1="205.409230769231" y2="202.88" />
			<line style="fill: blue; stroke: blue; stroke-width: 2" x1="133.6" x2="140.852" y1="202.88" y2="200.728971962617" />
			<line style="fill: blue; stroke: blue; stroke-width: 2" x1="140.852" x2="141" y1="200.728971962617" y2="200.688" />
			<line style="fill: blue; stroke: blue; stroke-width: 2" x1="141" x2="142.332" y1="200.688" y2="200.324110671937" />
			<line style="fill: blue; stroke: blue; stroke-width: 2" x1="142.332" x2="143.294" y1="200.324110671937" y2="200.066623122142" />
			<line style="fill: blue; stroke: blue; stroke-width: 2" x1="143.294" x2="144.552" y1="200.066623122142" y2="199.736434108527" />
			<line style="fill: blue; stroke: blue; stroke-width: 2" x1="144.552" x2="148.4" y1="199.736434108527" y2="198.77" />
			<line style="fill: blue; stroke: blue; stroke-width: 2" x1="148.4" x2="155.8" y1="198.77" y2="197.077647058824" />
			<line style="fill: blue; stroke: blue; stroke-width: 2" x1="155.8" x2="163.2" y1="197.077647058824" y2="195.573333333333" />
			<line style="fill: blue; stroke: blue; stroke-width: 2" x1="163.2" x2="166.012" y1="195.573333333333" y2="195.044613710555" />
			<line style="fill: blue; stroke: blue; stroke-width: 2" x1="166.012" x2="170.6" y1="195.044613710555" y2="194.227368421053" />
			<line style="fill: blue; stroke: blue; stroke-width: 2" x1="170.6" x2="178" y1="194.227368421053" y2="193.016" />
			<line style="fill: blue; stroke: blue; stroke-width: 2" x1="178" x2="192.8" y1="193.016" y2="190.923636363636" />
			<line style="fill: blue; stroke: blue; stroke-width: 2" x1="192.8" x2="202.679" y1="190.923636363636" y2="189.726590957789" />
			<line style="fill: blue; stroke: blue; stroke-width: 2" x1="202.679" x2="207.6" y1="189.726590957789" y2="189.18" />
			<line style="fill: blue; stroke: blue; stroke-width: 2" x1="207.6" x2="222.4" y1="189.18" y2="187.704615384615" />
			<line style="fill: blue; stroke: blue; stroke-width: 2" x1="222.4" x2="224.176" y1="187.704615384615" y2="187.542682926829" />
			<line style="fill: blue; stroke: blue; stroke-width: 2" x1="224.176" x2="237.2" y1="187.542682926829" y2="186.44" />
			<line style="fill: blue; stroke: blue; stroke-width: 2" x1="237.2" x2="252" y1="186.44" y2="185.344" />
			<line style="fill: blue; stroke: blue; stroke-width: 2" x1="252" x2="253.776" y1="185.344" y2="185.222222222222" />
			<line style="fill: blue; stroke: blue; stroke-width: 2" x1="253.776" x2="256.588" y1="185.222222222222" y2="185.033311561071" />
			<line style="fill: blue; stroke: blue; stroke-width: 2" x1="256.588" x2="266.8" y1="185.033311561071" y2="184.385" />
			<line style="fill: blue; stroke: blue; stroke-width: 2" x1="266.8" x2="281.6" y1="184.385" y2="183.538823529412" />
			<line style="fill: blue; stroke: blue; stroke-width: 2" x1="281.6" x2="296.4" y1="183.538823529412" y2="181.12" />
			<line style="fill: blue; stroke: blue; stroke-width: 2" x1="296.4" x2="311.2" y1="181.12" y2="178.955789473684" />
			<line style="fill: blue; stroke: blue; stroke-width: 2" x1="311.2" x2="313.642" y1="178.955789473684" y2="178.620401774067" />
			<line style="fill: blue; stroke: blue; stroke-width: 2" x1="313.642" x2="326" y1="178.620401774067" y2="177.008" />
			<line style="fill: blue; stroke: blue; stroke-width: 2" x1="326" x2="338.358" y1="177.008" y2="175.124070074394" />
			<line style="fill: blue; stroke: blue; stroke-width: 2" x1="338.358" x2="340.8" y1="175.124070074394" y2="174.769523809524" />
			<line style="fill: blue; stroke: blue; stroke-width: 2" x1="340.8" x2="344.5" y1="174.769523809524" y2="174.242823529412" />
			<line style="fill: blue; stroke: blue; stroke-width: 2" x1="344.5" x2="355.6" y1="174.242823529412" y2="172.734545454545" />
			<line style="fill: blue; stroke: blue; stroke-width: 2" x1="355.6" x2="370.4" y1="172.734545454545" y2="170.87652173913" />
			<line style="fill: blue; stroke: blue; stroke-width: 2" x1="370.4" x2="371.066" y1="170.87652173913" y2="170.796702104578" />
			<line style="fill: blue; stroke: blue; stroke-width: 2" x1="371.066" x2="375.358" y1="170.796702104578" y2="170.289693593315" />
			<line style="fill: blue; stroke: blue; stroke-width: 2" x1="375.358" x2="378.318" y1="170.289693593315" y2="169.947312513278" />
			<line style="fill: blue; stroke: blue; stroke-width: 2" x1="378.318" x2="385.2" y1="169.947312513278" y2="169.173333333333" />
			<line style="fill: blue; stroke: blue; stroke-width: 2" x1="385.2" x2="400" y1="169.173333333333" y2="167.6064" />
			<line style="fill: blue; stroke: blue; stroke-width: 2" x1="400" x2="414.8" y1="167.6064" y2="166.16" />
			<line style="fill: blue; stroke: blue; stroke-width: 2" x1="414.8" x2="429.6" y1="166.16" y2="164.820740740741" />
			<line style="fill: blue; stroke: blue; stroke-width: 2" x1="429.6" x2="437" y1="164.820740740741" y2="164.187636363636" />
			<line style="fill: blue; stroke: blue; stroke-width: 2" x1="437" x2="444.4" y1="164.187636363636" y2="163.577142857143" />
			<line style="fill: blue; stroke: blue; stroke-width: 2" x1="444.4" x2="459.2" y1="163.577142857143" y2="162.419310344828" />
			<line style="fill: blue; stroke: blue; stroke-width: 2" x1="459.2" x2="474" y1="162.419310344828" y2="161.338666666667" />
			<line style="fill: blue; stroke: blue; stroke-width: 2" x1="474" x2="548" y1="161.338666666667" y2="156.861714285714" />
			<line style="fill: blue; stroke: blue; stroke-width: 2" x1="548" x2="607.2" y1="156.861714285714" y2="154.106666666667" />
			<line style="fill: blue; stroke: blue; stroke-width: 2" x1="607.2" x2="622" y1="154.106666666667" y2="153.504" />
			<line style="fill: blue; stroke: blue; stroke-width: 2" x1="622" x2="646.716" y1="153.504" y2="152.562035037197" />
			<line style="fill: blue; stroke: blue; stroke-width: 2" x1="646.716" x2="649.232" y1="152.562035037197" y2="152.470363288719" />
			<line style="fill: blue; stroke: blue; stroke-width: 2" x1="649.232" x2="687.934" y1="152.470363288719" y2="151.148577212912" />
			<line style="fill: blue; stroke: blue; stroke-width: 2" x1="687.934" x2="696" y1="151.148577212912" y2="150.892444444444" />
			<line style="fill: blue; stroke: blue; stroke-width: 2" x1="696" x2="726.636" y1="150.892444444444" y2="149.973656256639" />
			<line style="fill: blue; stroke: blue; stroke-width: 2" x1="726.636" x2="770" y1="149.973656256639" y2="148.8032" />
			<line style="fill: blue; stroke: blue; stroke-width: 2" x1="770" x2="770" y1="148.8032" y2="30" />
		</g>
	</g>
	<text fill="blue" stroke="blue" x="50" y="70">2017-senate-single effective rate</text>
	<g id="n5267312">
		<g id="line3246414" />
		<g id="linen0014396">
			<line style="fill: red; stroke: red; stroke-width: 2" x1="30" x2="30" y1="270" y2="210" />
			<line style="fill: red; stroke: red; stroke-width: 2" x1="30" x2="770" y1="210" y2="210" />
			<line style="fill: red; stroke: red; stroke-width: 2" x1="770" x2="770" y1="210" y2="30" />
		</g>
	</g>
	<text fill="red" stroke="red" x="50" y="90">Flat-25 rate</text>
	<!-- 
	Generated using the Perl SVG Module V2.78
	by Ronan Oger
	Info: http://www.roitsystems.com/
 -->
</svg>