<?xml version="1.0" encoding="UTF-8" standalone="yes"?>
<!DOCTYPE svg PUBLIC "-//W3C//DTD SVG 1.0//EN" "http://www.w3.org/TR/2001/REC-SVG-20010904/DTD/svg10.dtd">
<svg height="300" width="800" xmlns="http://www.w3.org/2000/svg" xmlns:svg="http://www.w3.org/2000/svg" xmlns:xlink="http://www.w3.org/1999/xlink">
	<g id="n0577649">
		<g id="axis2838912" />
		<g id="axisn4297252">
			<line style="stroke: black; stroke-width: 2" x1="30" x2="770" y1="270" y2="270" />
			<line style="stroke: black; stroke-width: 2" x1="30" x2="30" y1="30" y2="270" />
			<line style="stroke: black; stroke-width: 2" x1="30" x2="30" y1="270" y2="273.75" />
			<text transform="rotate(90,30,277.5)" x="30" y="277.5"></text>
			<text transform="rotate(90,29.99926,277.5)" x="29.99926" y="277.5"></text>
			<line style="stroke: black; stroke-width: 2" x1="104" x2="104" y1="270" y2="273.75" />
			<text transform="rotate(90,104,277.5)" x="104" y="277.5"></text>
			<text transform="rotate(90,103.99926,277.5)" x="103.99926" y="277.5"></text>
			<line style="stroke: black; stroke-width: 2" x1="178" x2="178" y1="270" y2="273.75" />
			<text transform="rotate(90,178,277.5)" x="178" y="277.5"></text>
			<text transform="rotate(90,177.99926,277.5)" x="177.99926" y="277.5"></text>
			<line style="stroke: black; stroke-width: 2" x1="252" x2="252" y1="270" y2="273.75" />
			<text transform="rotate(90,252,277.5)" x="252" y="277.5"></text>
			<text transform="rotate(90,251.99926,277.5)" x="251.99926" y="277.5"></text>
			<line style="stroke: black; stroke-width: 2" x1="326" x2="326" y1="270" y2="273.75" />
			<text transform="rotate(90,326,277.5)" x="326" y="277.5"></text>
			<text transform="rotate(90,325.99926,277.5)" x="325.99926" y="277.5"></text>
			<line style="stroke: black; stroke-width: 2" x1="400" x2="400" y1="270" y2="273.75" />
			<text transform="rotate(90,400,277.5)" x="400" y="277.5"></text>
			<text transform="rotate(90,399.99926,277.5)" x="399.99926" y="277.5"></text>
			<line style="stroke: black; stroke-width: 2" x1="474" x2="474" y1="270" y2="273.75" />
			<text transform="rotate(90,474,277.5)" x="474" y="277.5"></text>
			<text transform="rotate(90,473.99926,277.5)" x="473.99926" y="277.5"></text>
			<line style="stroke: black; stroke-width: 2" x1="548" x2="548" y1="270" y2="273.75" />
			<text transform="rotate(90,548,277.5)" x="548" y="277.5"></text>
			<text transform="rotate(90,547.99926,277.5)" x="547.99926" y="277.5"></text>
			<line style="stroke: black; stroke-width: 2" x1="622" x2="622" y1="270" y2="273.75" />
			<text transform="rotate(90,622,277.5)" x="622" y="277.5"></text>
			<text transform="rotate(90,621.99926,277.5)" x="621.99926" y="277.5"></text>
			<line style="stroke: black; stroke-width: 2" x1="696" x2="696" y1="270" y2="273.75" />
			<text transform="rotate(90,696,277.5)" x="696" y="277.5"></text>
			<text transform="rotate(90,695.99926,277.5)" x="695.99926" y="277.5"></text>
			<line style="stroke: black; stroke-width: 2" x1="770" x2="770" y1="270" y2="273.75" />
			<text transform="rotate(90,770,277.5)" x="770" y="277.5"></text>
			<text transform="rotate(90,769.99926,277.5)" x="769.99926" y="277.5"></text>
			<line style="stroke: black; stroke-width: 2" x1="30" x2="26.25" y1="270" y2="270" />
			<text x="0" y="270"></text>
			<text x="29.99926" y="270"></text>
			<line style="stroke: black; stroke-width: 2" x1="30" x2="26.25" y1="230" y2="230" />
			<text x="0" y="230"></text>
			<text x="30.01406" y="230"></text>
			<line style="stroke: black; stroke-width: 2" x1="30" x2="26.25" y1="190" y2="190" />
			<text x="0" y="190"></text>
			<text x="30.02886" y="190"></text>
			<line style="stroke: black; stroke-width: 2" x1="30" x2="26.25" y1="150" y2="150" />
			<text x="0" y="150"></text>
			<text x="30.04366" y="150"></text>
			<line style="stroke: black; stroke-width: 2" x1="30" x2="26.25" y1="110" y2="110" />
			<text x="0" y="110"></text>
			<text x="30.05846" y="110"></text>
			<line style="stroke: black; stroke-width: 2" x1="30" x2="26.25" y1="70" y2="70" />
			<text x="0" y="70"></text>
			<text x="30.07326" y="70"></text>
			<line style="stroke: black; stroke-width: 2" x1="30" x2="26.25" y1="30" y2="30" />
			<text x="0" y="30"></text>
			<text x="30.08806" y="30"></text>
		</g>
	</g>
	<text fill="black" stroke="black" x="40" y="285">0</text>
	<text fill="black" stroke="black" x="380" y="285">250000</text>
	<text fill="black" stroke="black" x="730" y="285">500000</text>
	<text fill="black" stroke="black" x="10" y="260">0</text>
	<text fill="black" stroke="black" x="10" y="160">30</text>
	<text fill="black" stroke="black" x="10" y="45">60</text>
	<g id="n6035073">
		<g id="line3228380" />
		<g id="linen4990825">
			<line style="fill: green; stroke: green; stroke-width: 2" x1="30" x2="30" y1="270" y2="238" />
			<line style="fill: green; stroke: green; stroke-width: 2" x1="30" x2="437" y1="238" y2="106" />
			<line style="fill: green; stroke: green; stroke-width: 2" x1="437" x2="770" y1="106" y2="106" />
			<line style="fill: green; stroke: green; stroke-width: 2" x1="770" x2="770" y1="106" y2="30" />
		</g>
	</g>
	<text fill="green" stroke="green" x="50" y="50">Slant-8-41-275 marginal rate</text>
	<g id="n6555691">
		<g id="line6528695" />
		<g id="linen0305333">
			<line style="fill: blue; stroke: blue; stroke-width: 2" x1="30" x2="30" y1="270" y2="238" />
			<line style="fill: blue; stroke: blue; stroke-width: 2" x1="30" x2="437" y1="238" y2="172" />
			<line style="fill: blue; stroke: blue; stroke-width: 2" x1="437" x2="444.4" y1="172" y2="170.821428571429" />
			<line style="fill: blue; stroke: blue; stroke-width: 2" x1="444.4" x2="459.2" y1="170.821428571429" y2="168.586206896552" />
			<line style="fill: blue; stroke: blue; stroke-width: 2" x1="459.2" x2="474" y1="168.586206896552" y2="166.5" />
			<line style="fill: blue; stroke: blue; stroke-width: 2" x1="474" x2="548" y1="166.5" y2="157.857142857143" />
			<line style="fill: blue; stroke: blue; stroke-width: 2" x1="548" x2="622" y1="157.857142857143" y2="151.375" />
			<line style="fill: blue; stroke: blue; stroke-width: 2" x1="622" x2="646.716" y1="151.375" y2="149.556515478762" />
			<line style="fill: blue; stroke: blue; stroke-width: 2" x1="646.716" x2="649.232" y1="149.556515478762" y2="149.379541108987" />
			<line style="fill: blue; stroke: blue; stroke-width: 2" x1="649.232" x2="687.934" y1="149.379541108987" y2="146.827803396693" />
			<line style="fill: blue; stroke: blue; stroke-width: 2" x1="687.934" x2="696" y1="146.827803396693" y2="146.333333333333" />
			<line style="fill: blue; stroke: blue; stroke-width: 2" x1="696" x2="726.636" y1="146.333333333333" y2="144.559592096877" />
			<line style="fill: blue; stroke: blue; stroke-width: 2" x1="726.636" x2="770" y1="144.559592096877" y2="142.3" />
			<line style="fill: blue; stroke: blue; stroke-width: 2" x1="770" x2="770" y1="142.3" y2="30" />
		</g>
	</g>
	<text fill="blue" stroke="blue" x="50" y="70">Slant-8-41-275 effective rate</text>
	<g id="n4417992">
		<g id="line2292692" />
		<g id="linen9558798">
			<line style="fill: red; stroke: red; stroke-width: 2" x1="30" x2="30" y1="270" y2="238" />
			<line style="fill: red; stroke: red; stroke-width: 2" x1="30" x2="400" y1="238" y2="90" />
			<line style="fill: red; stroke: red; stroke-width: 2" x1="400" x2="770" y1="90" y2="90" />
			<line style="fill: red; stroke: red; stroke-width: 2" x1="770" x2="770" y1="90" y2="30" />
		</g>
	</g>
	<text fill="red" stroke="red" x="50" y="90">Slant-8-45-250 marginal rate</text>
	<g id="n2987351">
		<g id="line2887034" />
		<g id="linen9106815">
			<line style="fill: orange; stroke: orange; stroke-width: 2" x1="30" x2="30" y1="270" y2="238" />
			<line style="fill: orange; stroke: orange; stroke-width: 2" x1="30" x2="400" y1="238" y2="164" />
			<line style="fill: orange; stroke: orange; stroke-width: 2" x1="400" x2="414.8" y1="164" y2="161.153846153846" />
			<line style="fill: orange; stroke: orange; stroke-width: 2" x1="414.8" x2="429.6" y1="161.153846153846" y2="158.518518518519" />
			<line style="fill: orange; stroke: orange; stroke-width: 2" x1="429.6" x2="437" y1="158.518518518519" y2="157.272727272727" />
			<line style="fill: orange; stroke: orange; stroke-width: 2" x1="437" x2="444.4" y1="157.272727272727" y2="156.071428571429" />
			<line style="fill: orange; stroke: orange; stroke-width: 2" x1="444.4" x2="459.2" y1="156.071428571429" y2="153.793103448276" />
			<line style="fill: orange; stroke: orange; stroke-width: 2" x1="459.2" x2="474" y1="153.793103448276" y2="151.666666666667" />
			<line style="fill: orange; stroke: orange; stroke-width: 2" x1="474" x2="548" y1="151.666666666667" y2="142.857142857143" />
			<line style="fill: orange; stroke: orange; stroke-width: 2" x1="548" x2="622" y1="142.857142857143" y2="136.25" />
			<line style="fill: orange; stroke: orange; stroke-width: 2" x1="622" x2="646.716" y1="136.25" y2="134.396448284137" />
			<line style="fill: orange; stroke: orange; stroke-width: 2" x1="646.716" x2="649.232" y1="134.396448284137" y2="134.216061185468" />
			<line style="fill: orange; stroke: orange; stroke-width: 2" x1="649.232" x2="687.934" y1="134.216061185468" y2="131.615116409853" />
			<line style="fill: orange; stroke: orange; stroke-width: 2" x1="687.934" x2="696" y1="131.615116409853" y2="131.111111111111" />
			<line style="fill: orange; stroke: orange; stroke-width: 2" x1="696" x2="726.636" y1="131.111111111111" y2="129.303165498194" />
			<line style="fill: orange; stroke: orange; stroke-width: 2" x1="726.636" x2="770" y1="129.303165498194" y2="127" />
			<line style="fill: orange; stroke: orange; stroke-width: 2" x1="770" x2="770" y1="127" y2="30" />
		</g>
	</g>
	<text fill="orange" stroke="orange" x="50" y="110">Slant-8-45-250 effective rate</text>
	<!-- 
	Generated using the Perl SVG Module V2.78
	by Ronan Oger
	Info: http://www.roitsystems.com/
 -->
</svg>