<?xml version="1.0" encoding="UTF-8" standalone="yes"?>
<!DOCTYPE svg PUBLIC "-//W3C//DTD SVG 1.0//EN" "http://www.w3.org/TR/2001/REC-SVG-20010904/DTD/svg10.dtd">
<svg height="300" width="800" xmlns="http://www.w3.org/2000/svg" xmlns:svg="http://www.w3.org/2000/svg" xmlns:xlink="http://www.w3.org/1999/xlink">
	<g id="n3852379">
		<g id="axis9450036" />
		<g id="axisn2204519">
			<line style="stroke: black; stroke-width: 2" x1="30" x2="770" y1="270" y2="270" />
			<line style="stroke: black; stroke-width: 2" x1="30" x2="30" y1="30" y2="270" />
			<line style="stroke: black; stroke-width: 2" x1="30" x2="30" y1="270" y2="273.75" />
			<text transform="rotate(90,30,277.5)" x="30" y="277.5"></text>
			<text transform="rotate(90,29.99926,277.5)" x="29.99926" y="277.5"></text>
			<line style="stroke: black; stroke-width: 2" x1="104" x2="104" y1="270" y2="273.75" />
			<text transform="rotate(90,104,277.5)" x="104" y="277.5"></text>
			<text transform="rotate(90,103.99926,277.5)" x="103.99926" y="277.5"></text>
			<line style="stroke: black; stroke-width: 2" x1="178" x2="178" y1="270" y2="273.75" />
			<text transform="rotate(90,178,277.5)" x="178" y="277.5"></text>
			<text transform="rotate(90,177.99926,277.5)" x="177.99926" y="277.5"></text>
			<line style="stroke: black; stroke-width: 2" x1="252" x2="252" y1="270" y2="273.75" />
			<text transform="rotate(90,252,277.5)" x="252" y="277.5"></text>
			<text transform="rotate(90,251.99926,277.5)" x="251.99926" y="277.5"></text>
			<line style="stroke: black; stroke-width: 2" x1="326" x2="326" y1="270" y2="273.75" />
			<text transform="rotate(90,326,277.5)" x="326" y="277.5"></text>
			<text transform="rotate(90,325.99926,277.5)" x="325.99926" y="277.5"></text>
			<line style="stroke: black; stroke-width: 2" x1="400" x2="400" y1="270" y2="273.75" />
			<text transform="rotate(90,400,277.5)" x="400" y="277.5"></text>
			<text transform="rotate(90,399.99926,277.5)" x="399.99926" y="277.5"></text>
			<line style="stroke: black; stroke-width: 2" x1="474" x2="474" y1="270" y2="273.75" />
			<text transform="rotate(90,474,277.5)" x="474" y="277.5"></text>
			<text transform="rotate(90,473.99926,277.5)" x="473.99926" y="277.5"></text>
			<line style="stroke: black; stroke-width: 2" x1="548" x2="548" y1="270" y2="273.75" />
			<text transform="rotate(90,548,277.5)" x="548" y="277.5"></text>
			<text transform="rotate(90,547.99926,277.5)" x="547.99926" y="277.5"></text>
			<line style="stroke: black; stroke-width: 2" x1="622" x2="622" y1="270" y2="273.75" />
			<text transform="rotate(90,622,277.5)" x="622" y="277.5"></text>
			<text transform="rotate(90,621.99926,277.5)" x="621.99926" y="277.5"></text>
			<line style="stroke: black; stroke-width: 2" x1="696" x2="696" y1="270" y2="273.75" />
			<text transform="rotate(90,696,277.5)" x="696" y="277.5"></text>
			<text transform="rotate(90,695.99926,277.5)" x="695.99926" y="277.5"></text>
			<line style="stroke: black; stroke-width: 2" x1="770" x2="770" y1="270" y2="273.75" />
			<text transform="rotate(90,770,277.5)" x="770" y="277.5"></text>
			<text transform="rotate(90,769.99926,277.5)" x="769.99926" y="277.5"></text>
			<line style="stroke: black; stroke-width: 2" x1="30" x2="26.25" y1="270" y2="270" />
			<text x="0" y="270"></text>
			<text x="29.99926" y="270"></text>
			<line style="stroke: black; stroke-width: 2" x1="30" x2="26.25" y1="230" y2="230" />
			<text x="0" y="230"></text>
			<text x="30.01406" y="230"></text>
			<line style="stroke: black; stroke-width: 2" x1="30" x2="26.25" y1="190" y2="190" />
			<text x="0" y="190"></text>
			<text x="30.02886" y="190"></text>
			<line style="stroke: black; stroke-width: 2" x1="30" x2="26.25" y1="150" y2="150" />
			<text x="0" y="150"></text>
			<text x="30.04366" y="150"></text>
			<line style="stroke: black; stroke-width: 2" x1="30" x2="26.25" y1="110" y2="110" />
			<text x="0" y="110"></text>
			<text x="30.05846" y="110"></text>
			<line style="stroke: black; stroke-width: 2" x1="30" x2="26.25" y1="70" y2="70" />
			<text x="0" y="70"></text>
			<text x="30.07326" y="70"></text>
			<line style="stroke: black; stroke-width: 2" x1="30" x2="26.25" y1="30" y2="30" />
			<text x="0" y="30"></text>
			<text x="30.08806" y="30"></text>
		</g>
	</g>
	<text fill="black" stroke="black" x="40" y="285">0</text>
	<text fill="black" stroke="black" x="380" y="285">250000</text>
	<text fill="black" stroke="black" x="730" y="285">500000</text>
	<text fill="black" stroke="black" x="10" y="260">0</text>
	<text fill="black" stroke="black" x="10" y="160">30</text>
	<text fill="black" stroke="black" x="10" y="45">60</text>
	<g id="n5412065">
		<g id="line2853089" />
		<g id="linen9111296">
			<line style="fill: green; stroke: green; stroke-width: 2" x1="30" x2="30" y1="270" y2="238" />
			<line style="fill: green; stroke: green; stroke-width: 2" x1="30" x2="437" y1="238" y2="118" />
			<line style="fill: green; stroke: green; stroke-width: 2" x1="437" x2="770" y1="118" y2="118" />
			<line style="fill: green; stroke: green; stroke-width: 2" x1="770" x2="770" y1="118" y2="30" />
		</g>
	</g>
	<text fill="green" stroke="green" x="50" y="50">Slant-8-38-275 marginal rate</text>
	<g id="n3681579">
		<g id="line9661945" />
		<g id="linen6688872">
			<line style="fill: blue; stroke: blue; stroke-width: 2" x1="30" x2="30" y1="270" y2="238" />
			<line style="fill: blue; stroke: blue; stroke-width: 2" x1="30" x2="437" y1="238" y2="178" />
			<line style="fill: blue; stroke: blue; stroke-width: 2" x1="437" x2="444.4" y1="178" y2="176.928571428571" />
			<line style="fill: blue; stroke: blue; stroke-width: 2" x1="444.4" x2="459.2" y1="176.928571428571" y2="174.896551724138" />
			<line style="fill: blue; stroke: blue; stroke-width: 2" x1="459.2" x2="474" y1="174.896551724138" y2="173" />
			<line style="fill: blue; stroke: blue; stroke-width: 2" x1="474" x2="548" y1="173" y2="165.142857142857" />
			<line style="fill: blue; stroke: blue; stroke-width: 2" x1="548" x2="622" y1="165.142857142857" y2="159.25" />
			<line style="fill: blue; stroke: blue; stroke-width: 2" x1="622" x2="646.716" y1="159.25" y2="157.59683225342" />
			<line style="fill: blue; stroke: blue; stroke-width: 2" x1="646.716" x2="649.232" y1="157.59683225342" y2="157.435946462715" />
			<line style="fill: blue; stroke: blue; stroke-width: 2" x1="649.232" x2="687.934" y1="157.435946462715" y2="155.116184906085" />
			<line style="fill: blue; stroke: blue; stroke-width: 2" x1="687.934" x2="696" y1="155.116184906085" y2="154.666666666667" />
			<line style="fill: blue; stroke: blue; stroke-width: 2" x1="696" x2="726.636" y1="154.666666666667" y2="153.054174633525" />
			<line style="fill: blue; stroke: blue; stroke-width: 2" x1="726.636" x2="770" y1="153.054174633525" y2="151" />
			<line style="fill: blue; stroke: blue; stroke-width: 2" x1="770" x2="770" y1="151" y2="30" />
		</g>
	</g>
	<text fill="blue" stroke="blue" x="50" y="70">Slant-8-38-275 effective rate</text>
	<g id="n1260817">
		<g id="line4861616" />
		<g id="linen1147061">
			<line style="fill: red; stroke: red; stroke-width: 2" x1="30" x2="30" y1="270" y2="230" />
			<line style="fill: red; stroke: red; stroke-width: 2" x1="30" x2="49.758" y1="230" y2="230" />
			<line style="fill: red; stroke: red; stroke-width: 2" x1="49.758" x2="49.758" y1="230" y2="210" />
			<line style="fill: red; stroke: red; stroke-width: 2" x1="49.758" x2="105.184" y1="210" y2="210" />
			<line style="fill: red; stroke: red; stroke-width: 2" x1="105.184" x2="105.184" y1="210" y2="170" />
			<line style="fill: red; stroke: red; stroke-width: 2" x1="105.184" x2="224.176" y1="170" y2="170" />
			<line style="fill: red; stroke: red; stroke-width: 2" x1="224.176" x2="224.176" y1="170" y2="158" />
			<line style="fill: red; stroke: red; stroke-width: 2" x1="224.176" x2="344.5" y1="158" y2="158" />
			<line style="fill: red; stroke: red; stroke-width: 2" x1="344.5" x2="344.5" y1="158" y2="138" />
			<line style="fill: red; stroke: red; stroke-width: 2" x1="344.5" x2="646.716" y1="138" y2="138" />
			<line style="fill: red; stroke: red; stroke-width: 2" x1="646.716" x2="646.716" y1="138" y2="130" />
			<line style="fill: red; stroke: red; stroke-width: 2" x1="646.716" x2="687.934" y1="130" y2="130" />
			<line style="fill: red; stroke: red; stroke-width: 2" x1="687.934" x2="687.934" y1="130" y2="111.6" />
			<line style="fill: red; stroke: red; stroke-width: 2" x1="687.934" x2="770" y1="111.6" y2="111.6" />
			<line style="fill: red; stroke: red; stroke-width: 2" x1="770" x2="770" y1="111.6" y2="30" />
		</g>
	</g>
	<text fill="red" stroke="red" x="50" y="90">2017-household marginal rate</text>
	<g id="n1618618">
		<g id="line6273688" />
		<g id="linen7762532">
			<line style="fill: orange; stroke: orange; stroke-width: 2" x1="30" x2="30" y1="270" y2="230" />
			<line style="fill: orange; stroke: orange; stroke-width: 2" x1="30" x2="37.4" y1="230" y2="230" />
			<line style="fill: orange; stroke: orange; stroke-width: 2" x1="37.4" x2="43.801" y1="230" y2="230" />
			<line style="fill: orange; stroke: orange; stroke-width: 2" x1="43.801" x2="44.8" y1="230" y2="230" />
			<line style="fill: orange; stroke: orange; stroke-width: 2" x1="44.8" x2="49.758" y1="230" y2="230" />
			<line style="fill: orange; stroke: orange; stroke-width: 2" x1="49.758" x2="52.2" y1="230" y2="227.8" />
			<line style="fill: orange; stroke: orange; stroke-width: 2" x1="52.2" x2="57.306" y1="227.8" y2="224.471544715447" />
			<line style="fill: orange; stroke: orange; stroke-width: 2" x1="57.306" x2="57.602" y1="224.471544715447" y2="224.316353887399" />
			<line style="fill: orange; stroke: orange; stroke-width: 2" x1="57.602" x2="59.6" y1="224.316353887399" y2="223.35" />
			<line style="fill: orange; stroke: orange; stroke-width: 2" x1="59.6" x2="67" y1="223.35" y2="220.68" />
			<line style="fill: orange; stroke: orange; stroke-width: 2" x1="67" x2="74.4" y1="220.68" y2="218.9" />
			<line style="fill: orange; stroke: orange; stroke-width: 2" x1="74.4" x2="81.8" y1="218.9" y2="217.628571428571" />
			<line style="fill: orange; stroke: orange; stroke-width: 2" x1="81.8" x2="86.166" y1="217.628571428571" y2="217.03557312253" />
			<line style="fill: orange; stroke: orange; stroke-width: 2" x1="86.166" x2="89.2" y1="217.03557312253" y2="216.675" />
			<line style="fill: orange; stroke: orange; stroke-width: 2" x1="89.2" x2="96.6" y1="216.675" y2="215.933333333333" />
			<line style="fill: orange; stroke: orange; stroke-width: 2" x1="96.6" x2="104" y1="215.933333333333" y2="215.34" />
			<line style="fill: orange; stroke: orange; stroke-width: 2" x1="104" x2="105.184" y1="215.34" y2="215.255905511811" />
			<line style="fill: orange; stroke: orange; stroke-width: 2" x1="105.184" x2="111.4" y1="215.255905511811" y2="211.8" />
			<line style="fill: orange; stroke: orange; stroke-width: 2" x1="111.4" x2="118.8" y1="211.8" y2="208.316666666667" />
			<line style="fill: orange; stroke: orange; stroke-width: 2" x1="118.8" x2="126.2" y1="208.316666666667" y2="205.369230769231" />
			<line style="fill: orange; stroke: orange; stroke-width: 2" x1="126.2" x2="133.6" y1="205.369230769231" y2="202.842857142857" />
			<line style="fill: orange; stroke: orange; stroke-width: 2" x1="133.6" x2="140.852" y1="202.842857142857" y2="200.694259012016" />
			<line style="fill: orange; stroke: orange; stroke-width: 2" x1="140.852" x2="141" y1="200.694259012016" y2="200.653333333333" />
			<line style="fill: orange; stroke: orange; stroke-width: 2" x1="141" x2="142.332" y1="200.653333333333" y2="200.289855072464" />
			<line style="fill: orange; stroke: orange; stroke-width: 2" x1="142.332" x2="143.294" y1="200.289855072464" y2="200.032658393207" />
			<line style="fill: orange; stroke: orange; stroke-width: 2" x1="143.294" x2="148.4" y1="200.032658393207" y2="198.7375" />
			<line style="fill: orange; stroke: orange; stroke-width: 2" x1="148.4" x2="155.8" y1="198.7375" y2="197.047058823529" />
			<line style="fill: orange; stroke: orange; stroke-width: 2" x1="155.8" x2="163.2" y1="197.047058823529" y2="195.544444444444" />
			<line style="fill: orange; stroke: orange; stroke-width: 2" x1="163.2" x2="166.012" y1="195.544444444444" y2="195.016322089227" />
			<line style="fill: orange; stroke: orange; stroke-width: 2" x1="166.012" x2="170.6" y1="195.016322089227" y2="194.2" />
			<line style="fill: orange; stroke: orange; stroke-width: 2" x1="170.6" x2="178" y1="194.2" y2="192.99" />
			<line style="fill: orange; stroke: orange; stroke-width: 2" x1="178" x2="192.8" y1="192.99" y2="190.9" />
			<line style="fill: orange; stroke: orange; stroke-width: 2" x1="192.8" x2="202.679" y1="190.9" y2="189.704306835226" />
			<line style="fill: orange; stroke: orange; stroke-width: 2" x1="202.679" x2="207.6" y1="189.704306835226" y2="189.158333333333" />
			<line style="fill: orange; stroke: orange; stroke-width: 2" x1="207.6" x2="222.4" y1="189.158333333333" y2="187.684615384615" />
			<line style="fill: orange; stroke: orange; stroke-width: 2" x1="222.4" x2="224.176" y1="187.684615384615" y2="187.522865853659" />
			<line style="fill: orange; stroke: orange; stroke-width: 2" x1="224.176" x2="237.2" y1="187.522865853659" y2="185.667142857143" />
			<line style="fill: orange; stroke: orange; stroke-width: 2" x1="237.2" x2="252" y1="185.667142857143" y2="183.822666666667" />
			<line style="fill: orange; stroke: orange; stroke-width: 2" x1="252" x2="253.776" y1="183.822666666667" y2="183.617724867725" />
			<line style="fill: orange; stroke: orange; stroke-width: 2" x1="253.776" x2="256.588" y1="183.617724867725" y2="183.299804049641" />
			<line style="fill: orange; stroke: orange; stroke-width: 2" x1="256.588" x2="266.8" y1="183.299804049641" y2="182.20875" />
			<line style="fill: orange; stroke: orange; stroke-width: 2" x1="266.8" x2="281.6" y1="182.20875" y2="180.784705882353" />
			<line style="fill: orange; stroke: orange; stroke-width: 2" x1="281.6" x2="296.4" y1="180.784705882353" y2="179.518888888889" />
			<line style="fill: orange; stroke: orange; stroke-width: 2" x1="296.4" x2="311.2" y1="179.518888888889" y2="178.386315789474" />
			<line style="fill: orange; stroke: orange; stroke-width: 2" x1="311.2" x2="313.642" y1="178.386315789474" y2="178.210800939212" />
			<line style="fill: orange; stroke: orange; stroke-width: 2" x1="313.642" x2="326" y1="178.210800939212" y2="177.367" />
			<line style="fill: orange; stroke: orange; stroke-width: 2" x1="326" x2="338.358" y1="177.367" y2="176.590832733381" />
			<line style="fill: orange; stroke: orange; stroke-width: 2" x1="338.358" x2="340.8" y1="176.590832733381" y2="176.444761904762" />
			<line style="fill: orange; stroke: orange; stroke-width: 2" x1="340.8" x2="344.5" y1="176.444761904762" y2="176.227764705882" />
			<line style="fill: orange; stroke: orange; stroke-width: 2" x1="344.5" x2="355.6" y1="176.227764705882" y2="174.924545454545" />
			<line style="fill: orange; stroke: orange; stroke-width: 2" x1="355.6" x2="370.4" y1="174.924545454545" y2="173.319130434783" />
			<line style="fill: orange; stroke: orange; stroke-width: 2" x1="370.4" x2="371.066" y1="173.319130434783" y2="173.250162725103" />
			<line style="fill: orange; stroke: orange; stroke-width: 2" x1="371.066" x2="375.358" y1="173.250162725103" y2="172.812084851082" />
			<line style="fill: orange; stroke: orange; stroke-width: 2" x1="375.358" x2="378.318" y1="172.812084851082" y2="172.516252390057" />
			<line style="fill: orange; stroke: orange; stroke-width: 2" x1="378.318" x2="385.2" y1="172.516252390057" y2="171.8475" />
			<line style="fill: orange; stroke: orange; stroke-width: 2" x1="385.2" x2="400" y1="171.8475" y2="170.4936" />
			<line style="fill: orange; stroke: orange; stroke-width: 2" x1="400" x2="414.8" y1="170.4936" y2="169.243846153846" />
			<line style="fill: orange; stroke: orange; stroke-width: 2" x1="414.8" x2="429.6" y1="169.243846153846" y2="168.086666666667" />
			<line style="fill: orange; stroke: orange; stroke-width: 2" x1="429.6" x2="437" y1="168.086666666667" y2="167.539636363636" />
			<line style="fill: orange; stroke: orange; stroke-width: 2" x1="437" x2="444.4" y1="167.539636363636" y2="167.012142857143" />
			<line style="fill: orange; stroke: orange; stroke-width: 2" x1="444.4" x2="459.2" y1="167.012142857143" y2="166.011724137931" />
			<line style="fill: orange; stroke: orange; stroke-width: 2" x1="459.2" x2="474" y1="166.011724137931" y2="165.078" />
			<line style="fill: orange; stroke: orange; stroke-width: 2" x1="474" x2="548" y1="165.078" y2="161.209714285714" />
			<line style="fill: orange; stroke: orange; stroke-width: 2" x1="548" x2="622" y1="161.209714285714" y2="158.3085" />
			<line style="fill: orange; stroke: orange; stroke-width: 2" x1="622" x2="646.716" y1="158.3085" y2="157.494600431965" />
			<line style="fill: orange; stroke: orange; stroke-width: 2" x1="646.716" x2="649.232" y1="157.494600431965" y2="157.382887189293" />
			<line style="fill: orange; stroke: orange; stroke-width: 2" x1="649.232" x2="687.934" y1="157.382887189293" y2="155.772129119334" />
			<line style="fill: orange; stroke: orange; stroke-width: 2" x1="687.934" x2="696" y1="155.772129119334" y2="155.237155555556" />
			<line style="fill: orange; stroke: orange; stroke-width: 2" x1="696" x2="726.636" y1="155.237155555556" y2="153.318121946038" />
			<line style="fill: orange; stroke: orange; stroke-width: 2" x1="726.636" x2="770" y1="153.318121946038" y2="150.87344" />
			<line style="fill: orange; stroke: orange; stroke-width: 2" x1="770" x2="770" y1="150.87344" y2="30" />
		</g>
	</g>
	<text fill="orange" stroke="orange" x="50" y="110">2017-household effective rate</text>
	<!-- 
	Generated using the Perl SVG Module V2.78
	by Ronan Oger
	Info: http://www.roitsystems.com/
 -->
</svg>