<?xml version="1.0" encoding="UTF-8" standalone="yes"?>
<!DOCTYPE svg PUBLIC "-//W3C//DTD SVG 1.0//EN" "http://www.w3.org/TR/2001/REC-SVG-20010904/DTD/svg10.dtd">
<svg height="300" width="800" xmlns="http://www.w3.org/2000/svg" xmlns:svg="http://www.w3.org/2000/svg" xmlns:xlink="http://www.w3.org/1999/xlink">
	<g id="n9619298">
		<g id="axis2894346" />
		<g id="axisn5322204">
			<line style="stroke: black; stroke-width: 2" x1="30" x2="770" y1="270" y2="270" />
			<line style="stroke: black; stroke-width: 2" x1="30" x2="30" y1="30" y2="270" />
			<line style="stroke: black; stroke-width: 2" x1="30" x2="30" y1="270" y2="273.75" />
			<text transform="rotate(90,30,277.5)" x="30" y="277.5"></text>
			<text transform="rotate(90,29.99926,277.5)" x="29.99926" y="277.5"></text>
			<line style="stroke: black; stroke-width: 2" x1="104" x2="104" y1="270" y2="273.75" />
			<text transform="rotate(90,104,277.5)" x="104" y="277.5"></text>
			<text transform="rotate(90,103.99926,277.5)" x="103.99926" y="277.5"></text>
			<line style="stroke: black; stroke-width: 2" x1="178" x2="178" y1="270" y2="273.75" />
			<text transform="rotate(90,178,277.5)" x="178" y="277.5"></text>
			<text transform="rotate(90,177.99926,277.5)" x="177.99926" y="277.5"></text>
			<line style="stroke: black; stroke-width: 2" x1="252" x2="252" y1="270" y2="273.75" />
			<text transform="rotate(90,252,277.5)" x="252" y="277.5"></text>
			<text transform="rotate(90,251.99926,277.5)" x="251.99926" y="277.5"></text>
			<line style="stroke: black; stroke-width: 2" x1="326" x2="326" y1="270" y2="273.75" />
			<text transform="rotate(90,326,277.5)" x="326" y="277.5"></text>
			<text transform="rotate(90,325.99926,277.5)" x="325.99926" y="277.5"></text>
			<line style="stroke: black; stroke-width: 2" x1="400" x2="400" y1="270" y2="273.75" />
			<text transform="rotate(90,400,277.5)" x="400" y="277.5"></text>
			<text transform="rotate(90,399.99926,277.5)" x="399.99926" y="277.5"></text>
			<line style="stroke: black; stroke-width: 2" x1="474" x2="474" y1="270" y2="273.75" />
			<text transform="rotate(90,474,277.5)" x="474" y="277.5"></text>
			<text transform="rotate(90,473.99926,277.5)" x="473.99926" y="277.5"></text>
			<line style="stroke: black; stroke-width: 2" x1="548" x2="548" y1="270" y2="273.75" />
			<text transform="rotate(90,548,277.5)" x="548" y="277.5"></text>
			<text transform="rotate(90,547.99926,277.5)" x="547.99926" y="277.5"></text>
			<line style="stroke: black; stroke-width: 2" x1="622" x2="622" y1="270" y2="273.75" />
			<text transform="rotate(90,622,277.5)" x="622" y="277.5"></text>
			<text transform="rotate(90,621.99926,277.5)" x="621.99926" y="277.5"></text>
			<line style="stroke: black; stroke-width: 2" x1="696" x2="696" y1="270" y2="273.75" />
			<text transform="rotate(90,696,277.5)" x="696" y="277.5"></text>
			<text transform="rotate(90,695.99926,277.5)" x="695.99926" y="277.5"></text>
			<line style="stroke: black; stroke-width: 2" x1="770" x2="770" y1="270" y2="273.75" />
			<text transform="rotate(90,770,277.5)" x="770" y="277.5"></text>
			<text transform="rotate(90,769.99926,277.5)" x="769.99926" y="277.5"></text>
			<line style="stroke: black; stroke-width: 2" x1="30" x2="26.25" y1="270" y2="270" />
			<text x="0" y="270"></text>
			<text x="29.99926" y="270"></text>
			<line style="stroke: black; stroke-width: 2" x1="30" x2="26.25" y1="230" y2="230" />
			<text x="0" y="230"></text>
			<text x="30.01406" y="230"></text>
			<line style="stroke: black; stroke-width: 2" x1="30" x2="26.25" y1="190" y2="190" />
			<text x="0" y="190"></text>
			<text x="30.02886" y="190"></text>
			<line style="stroke: black; stroke-width: 2" x1="30" x2="26.25" y1="150" y2="150" />
			<text x="0" y="150"></text>
			<text x="30.04366" y="150"></text>
			<line style="stroke: black; stroke-width: 2" x1="30" x2="26.25" y1="110" y2="110" />
			<text x="0" y="110"></text>
			<text x="30.05846" y="110"></text>
			<line style="stroke: black; stroke-width: 2" x1="30" x2="26.25" y1="70" y2="70" />
			<text x="0" y="70"></text>
			<text x="30.07326" y="70"></text>
			<line style="stroke: black; stroke-width: 2" x1="30" x2="26.25" y1="30" y2="30" />
			<text x="0" y="30"></text>
			<text x="30.08806" y="30"></text>
		</g>
	</g>
	<text fill="black" stroke="black" x="40" y="285">0</text>
	<text fill="black" stroke="black" x="380" y="285">250000</text>
	<text fill="black" stroke="black" x="730" y="285">500000</text>
	<text fill="black" stroke="black" x="10" y="260">0</text>
	<text fill="black" stroke="black" x="10" y="160">30</text>
	<text fill="black" stroke="black" x="10" y="45">60</text>
	<g id="n1479335">
		<g id="line6289038" />
		<g id="linen0703036">
			<line style="fill: green; stroke: green; stroke-width: 2" x1="30" x2="30" y1="270" y2="238" />
			<line style="fill: green; stroke: green; stroke-width: 2" x1="30" x2="474" y1="238" y2="106" />
			<line style="fill: green; stroke: green; stroke-width: 2" x1="474" x2="770" y1="106" y2="106" />
			<line style="fill: green; stroke: green; stroke-width: 2" x1="770" x2="770" y1="106" y2="30" />
		</g>
	</g>
	<text fill="green" stroke="green" x="50" y="50">Slant-8-41-300 marginal rate</text>
	<g id="n3627818">
		<g id="line0223340" />
		<g id="linen0314071">
			<line style="fill: blue; stroke: blue; stroke-width: 2" x1="30" x2="30" y1="270" y2="238" />
			<line style="fill: blue; stroke: blue; stroke-width: 2" x1="30" x2="474" y1="238" y2="172" />
			<line style="fill: blue; stroke: blue; stroke-width: 2" x1="474" x2="548" y1="172" y2="162.571428571429" />
			<line style="fill: blue; stroke: blue; stroke-width: 2" x1="548" x2="622" y1="162.571428571429" y2="155.5" />
			<line style="fill: blue; stroke: blue; stroke-width: 2" x1="622" x2="646.716" y1="155.5" y2="153.516198704104" />
			<line style="fill: blue; stroke: blue; stroke-width: 2" x1="646.716" x2="649.232" y1="153.516198704104" y2="153.323135755258" />
			<line style="fill: blue; stroke: blue; stroke-width: 2" x1="649.232" x2="687.934" y1="153.323135755258" y2="150.539421887302" />
			<line style="fill: blue; stroke: blue; stroke-width: 2" x1="687.934" x2="696" y1="150.539421887302" y2="150" />
			<line style="fill: blue; stroke: blue; stroke-width: 2" x1="696" x2="726.636" y1="150" y2="148.065009560229" />
			<line style="fill: blue; stroke: blue; stroke-width: 2" x1="726.636" x2="770" y1="148.065009560229" y2="145.6" />
			<line style="fill: blue; stroke: blue; stroke-width: 2" x1="770" x2="770" y1="145.6" y2="30" />
		</g>
	</g>
	<text fill="blue" stroke="blue" x="50" y="70">Slant-8-41-300 effective rate</text>
	<g id="n4263664">
		<g id="line8619005" />
		<g id="linen6519737">
			<line style="fill: red; stroke: red; stroke-width: 2" x1="30" x2="30" y1="270" y2="230" />
			<line style="fill: red; stroke: red; stroke-width: 2" x1="30" x2="57.602" y1="230" y2="230" />
			<line style="fill: red; stroke: red; stroke-width: 2" x1="57.602" x2="57.602" y1="230" y2="210" />
			<line style="fill: red; stroke: red; stroke-width: 2" x1="57.602" x2="142.332" y1="210" y2="210" />
			<line style="fill: red; stroke: red; stroke-width: 2" x1="142.332" x2="142.332" y1="210" y2="170" />
			<line style="fill: red; stroke: red; stroke-width: 2" x1="142.332" x2="256.588" y1="170" y2="170" />
			<line style="fill: red; stroke: red; stroke-width: 2" x1="256.588" x2="256.588" y1="170" y2="158" />
			<line style="fill: red; stroke: red; stroke-width: 2" x1="256.588" x2="375.358" y1="158" y2="158" />
			<line style="fill: red; stroke: red; stroke-width: 2" x1="375.358" x2="375.358" y1="158" y2="138" />
			<line style="fill: red; stroke: red; stroke-width: 2" x1="375.358" x2="646.716" y1="138" y2="138" />
			<line style="fill: red; stroke: red; stroke-width: 2" x1="646.716" x2="646.716" y1="138" y2="130" />
			<line style="fill: red; stroke: red; stroke-width: 2" x1="646.716" x2="726.636" y1="130" y2="130" />
			<line style="fill: red; stroke: red; stroke-width: 2" x1="726.636" x2="726.636" y1="130" y2="111.6" />
			<line style="fill: red; stroke: red; stroke-width: 2" x1="726.636" x2="770" y1="111.6" y2="111.6" />
			<line style="fill: red; stroke: red; stroke-width: 2" x1="770" x2="770" y1="111.6" y2="30" />
		</g>
	</g>
	<text fill="red" stroke="red" x="50" y="90">2017-joint marginal rate</text>
	<g id="n2921212">
		<g id="line6596225" />
		<g id="linen5379379">
			<line style="fill: orange; stroke: orange; stroke-width: 2" x1="30" x2="30" y1="270" y2="230" />
			<line style="fill: orange; stroke: orange; stroke-width: 2" x1="30" x2="37.4" y1="230" y2="230" />
			<line style="fill: orange; stroke: orange; stroke-width: 2" x1="37.4" x2="43.801" y1="230" y2="230" />
			<line style="fill: orange; stroke: orange; stroke-width: 2" x1="43.801" x2="44.8" y1="230" y2="230" />
			<line style="fill: orange; stroke: orange; stroke-width: 2" x1="44.8" x2="49.758" y1="230" y2="230" />
			<line style="fill: orange; stroke: orange; stroke-width: 2" x1="49.758" x2="52.2" y1="230" y2="230" />
			<line style="fill: orange; stroke: orange; stroke-width: 2" x1="52.2" x2="57.306" y1="230" y2="230" />
			<line style="fill: orange; stroke: orange; stroke-width: 2" x1="57.306" x2="57.602" y1="230" y2="230" />
			<line style="fill: orange; stroke: orange; stroke-width: 2" x1="57.602" x2="59.6" y1="230" y2="228.65" />
			<line style="fill: orange; stroke: orange; stroke-width: 2" x1="59.6" x2="67" y1="228.65" y2="224.92" />
			<line style="fill: orange; stroke: orange; stroke-width: 2" x1="67" x2="74.4" y1="224.92" y2="222.433333333333" />
			<line style="fill: orange; stroke: orange; stroke-width: 2" x1="74.4" x2="81.8" y1="222.433333333333" y2="220.657142857143" />
			<line style="fill: orange; stroke: orange; stroke-width: 2" x1="81.8" x2="86.166" y1="220.657142857143" y2="219.828722002635" />
			<line style="fill: orange; stroke: orange; stroke-width: 2" x1="86.166" x2="89.2" y1="219.828722002635" y2="219.325" />
			<line style="fill: orange; stroke: orange; stroke-width: 2" x1="89.2" x2="96.6" y1="219.325" y2="218.288888888889" />
			<line style="fill: orange; stroke: orange; stroke-width: 2" x1="96.6" x2="104" y1="218.288888888889" y2="217.46" />
			<line style="fill: orange; stroke: orange; stroke-width: 2" x1="104" x2="105.184" y1="217.46" y2="217.342519685039" />
			<line style="fill: orange; stroke: orange; stroke-width: 2" x1="105.184" x2="111.4" y1="217.342519685039" y2="216.781818181818" />
			<line style="fill: orange; stroke: orange; stroke-width: 2" x1="111.4" x2="118.8" y1="216.781818181818" y2="216.216666666667" />
			<line style="fill: orange; stroke: orange; stroke-width: 2" x1="118.8" x2="126.2" y1="216.216666666667" y2="215.738461538462" />
			<line style="fill: orange; stroke: orange; stroke-width: 2" x1="126.2" x2="133.6" y1="215.738461538462" y2="215.328571428571" />
			<line style="fill: orange; stroke: orange; stroke-width: 2" x1="133.6" x2="140.852" y1="215.328571428571" y2="214.97997329773" />
			<line style="fill: orange; stroke: orange; stroke-width: 2" x1="140.852" x2="141" y1="214.97997329773" y2="214.973333333333" />
			<line style="fill: orange; stroke: orange; stroke-width: 2" x1="141" x2="142.332" y1="214.973333333333" y2="214.914361001318" />
			<line style="fill: orange; stroke: orange; stroke-width: 2" x1="142.332" x2="143.294" y1="214.914361001318" y2="214.532984977139" />
			<line style="fill: orange; stroke: orange; stroke-width: 2" x1="143.294" x2="148.4" y1="214.532984977139" y2="212.6125" />
			<line style="fill: orange; stroke: orange; stroke-width: 2" x1="148.4" x2="155.8" y1="212.6125" y2="210.105882352941" />
			<line style="fill: orange; stroke: orange; stroke-width: 2" x1="155.8" x2="163.2" y1="210.105882352941" y2="207.877777777778" />
			<line style="fill: orange; stroke: orange; stroke-width: 2" x1="163.2" x2="166.012" y1="207.877777777778" y2="207.094668117519" />
			<line style="fill: orange; stroke: orange; stroke-width: 2" x1="166.012" x2="170.6" y1="207.094668117519" y2="205.884210526316" />
			<line style="fill: orange; stroke: orange; stroke-width: 2" x1="170.6" x2="178" y1="205.884210526316" y2="204.09" />
			<line style="fill: orange; stroke: orange; stroke-width: 2" x1="178" x2="192.8" y1="204.09" y2="200.990909090909" />
			<line style="fill: orange; stroke: orange; stroke-width: 2" x1="192.8" x2="202.679" y1="200.990909090909" y2="199.217913006214" />
			<line style="fill: orange; stroke: orange; stroke-width: 2" x1="202.679" x2="207.6" y1="199.217913006214" y2="198.408333333333" />
			<line style="fill: orange; stroke: orange; stroke-width: 2" x1="207.6" x2="222.4" y1="198.408333333333" y2="196.223076923077" />
			<line style="fill: orange; stroke: orange; stroke-width: 2" x1="222.4" x2="224.176" y1="196.223076923077" y2="195.983231707317" />
			<line style="fill: orange; stroke: orange; stroke-width: 2" x1="224.176" x2="237.2" y1="195.983231707317" y2="194.35" />
			<line style="fill: orange; stroke: orange; stroke-width: 2" x1="237.2" x2="252" y1="194.35" y2="192.726666666667" />
			<line style="fill: orange; stroke: orange; stroke-width: 2" x1="252" x2="253.776" y1="192.726666666667" y2="192.546296296296" />
			<line style="fill: orange; stroke: orange; stroke-width: 2" x1="253.776" x2="256.588" y1="192.546296296296" y2="192.26649248857" />
			<line style="fill: orange; stroke: orange; stroke-width: 2" x1="256.588" x2="266.8" y1="192.26649248857" y2="190.78875" />
			<line style="fill: orange; stroke: orange; stroke-width: 2" x1="266.8" x2="281.6" y1="190.78875" y2="188.86" />
			<line style="fill: orange; stroke: orange; stroke-width: 2" x1="281.6" x2="296.4" y1="188.86" y2="187.145555555556" />
			<line style="fill: orange; stroke: orange; stroke-width: 2" x1="296.4" x2="311.2" y1="187.145555555556" y2="185.611578947368" />
			<line style="fill: orange; stroke: orange; stroke-width: 2" x1="311.2" x2="313.642" y1="185.611578947368" y2="185.3738585964" />
			<line style="fill: orange; stroke: orange; stroke-width: 2" x1="313.642" x2="326" y1="185.3738585964" y2="184.231" />
			<line style="fill: orange; stroke: orange; stroke-width: 2" x1="326" x2="338.358" y1="184.231" y2="183.17974562035" />
			<line style="fill: orange; stroke: orange; stroke-width: 2" x1="338.358" x2="340.8" y1="183.17974562035" y2="182.981904761905" />
			<line style="fill: orange; stroke: orange; stroke-width: 2" x1="340.8" x2="344.5" y1="182.981904761905" y2="182.688" />
			<line style="fill: orange; stroke: orange; stroke-width: 2" x1="344.5" x2="355.6" y1="182.688" y2="181.846363636364" />
			<line style="fill: orange; stroke: orange; stroke-width: 2" x1="355.6" x2="370.4" y1="181.846363636364" y2="180.809565217391" />
			<line style="fill: orange; stroke: orange; stroke-width: 2" x1="370.4" x2="371.066" y1="180.809565217391" y2="180.765024951182" />
			<line style="fill: orange; stroke: orange; stroke-width: 2" x1="371.066" x2="375.358" y1="180.765024951182" y2="180.482108420827" />
			<line style="fill: orange; stroke: orange; stroke-width: 2" x1="375.358" x2="378.318" y1="180.482108420827" y2="180.121096239643" />
			<line style="fill: orange; stroke: orange; stroke-width: 2" x1="378.318" x2="385.2" y1="180.121096239643" y2="179.305" />
			<line style="fill: orange; stroke: orange; stroke-width: 2" x1="385.2" x2="400" y1="179.305" y2="177.6528" />
			<line style="fill: orange; stroke: orange; stroke-width: 2" x1="400" x2="414.8" y1="177.6528" y2="176.127692307692" />
			<line style="fill: orange; stroke: orange; stroke-width: 2" x1="414.8" x2="429.6" y1="176.127692307692" y2="174.715555555556" />
			<line style="fill: orange; stroke: orange; stroke-width: 2" x1="429.6" x2="437" y1="174.715555555556" y2="174.048" />
			<line style="fill: orange; stroke: orange; stroke-width: 2" x1="437" x2="444.4" y1="174.048" y2="173.404285714286" />
			<line style="fill: orange; stroke: orange; stroke-width: 2" x1="444.4" x2="459.2" y1="173.404285714286" y2="172.183448275862" />
			<line style="fill: orange; stroke: orange; stroke-width: 2" x1="459.2" x2="474" y1="172.183448275862" y2="171.044" />
			<line style="fill: orange; stroke: orange; stroke-width: 2" x1="474" x2="548" y1="171.044" y2="166.323428571429" />
			<line style="fill: orange; stroke: orange; stroke-width: 2" x1="548" x2="622" y1="166.323428571429" y2="162.783" />
			<line style="fill: orange; stroke: orange; stroke-width: 2" x1="622" x2="646.716" y1="162.783" y2="161.789776817855" />
			<line style="fill: orange; stroke: orange; stroke-width: 2" x1="646.716" x2="649.232" y1="161.789776817855" y2="161.660611854685" />
			<line style="fill: orange; stroke: orange; stroke-width: 2" x1="649.232" x2="687.934" y1="161.660611854685" y2="159.798222922056" />
			<line style="fill: orange; stroke: orange; stroke-width: 2" x1="687.934" x2="696" y1="159.798222922056" y2="159.437333333333" />
			<line style="fill: orange; stroke: orange; stroke-width: 2" x1="696" x2="726.636" y1="159.437333333333" y2="158.142766093053" />
			<line style="fill: orange; stroke: orange; stroke-width: 2" x1="726.636" x2="770" y1="158.142766093053" y2="155.41536" />
			<line style="fill: orange; stroke: orange; stroke-width: 2" x1="770" x2="770" y1="155.41536" y2="30" />
		</g>
	</g>
	<text fill="orange" stroke="orange" x="50" y="110">2017-joint effective rate</text>
	<!-- 
	Generated using the Perl SVG Module V2.78
	by Ronan Oger
	Info: http://www.roitsystems.com/
 -->
</svg>