<?xml version="1.0" encoding="UTF-8" standalone="yes"?>
<!DOCTYPE svg PUBLIC "-//W3C//DTD SVG 1.0//EN" "http://www.w3.org/TR/2001/REC-SVG-20010904/DTD/svg10.dtd">
<svg height="300" width="800" xmlns="http://www.w3.org/2000/svg" xmlns:svg="http://www.w3.org/2000/svg" xmlns:xlink="http://www.w3.org/1999/xlink">
	<g id="n7651305">
		<g id="axis1922417" />
		<g id="axisn1426586">
			<line style="stroke: black; stroke-width: 2" x1="30" x2="770" y1="270" y2="270" />
			<line style="stroke: black; stroke-width: 2" x1="30" x2="30" y1="30" y2="270" />
			<line style="stroke: black; stroke-width: 2" x1="30" x2="30" y1="270" y2="273.75" />
			<text transform="rotate(90,30,277.5)" x="30" y="277.5"></text>
			<text transform="rotate(90,29.99926,277.5)" x="29.99926" y="277.5"></text>
			<line style="stroke: black; stroke-width: 2" x1="104" x2="104" y1="270" y2="273.75" />
			<text transform="rotate(90,104,277.5)" x="104" y="277.5"></text>
			<text transform="rotate(90,103.99926,277.5)" x="103.99926" y="277.5"></text>
			<line style="stroke: black; stroke-width: 2" x1="178" x2="178" y1="270" y2="273.75" />
			<text transform="rotate(90,178,277.5)" x="178" y="277.5"></text>
			<text transform="rotate(90,177.99926,277.5)" x="177.99926" y="277.5"></text>
			<line style="stroke: black; stroke-width: 2" x1="252" x2="252" y1="270" y2="273.75" />
			<text transform="rotate(90,252,277.5)" x="252" y="277.5"></text>
			<text transform="rotate(90,251.99926,277.5)" x="251.99926" y="277.5"></text>
			<line style="stroke: black; stroke-width: 2" x1="326" x2="326" y1="270" y2="273.75" />
			<text transform="rotate(90,326,277.5)" x="326" y="277.5"></text>
			<text transform="rotate(90,325.99926,277.5)" x="325.99926" y="277.5"></text>
			<line style="stroke: black; stroke-width: 2" x1="400" x2="400" y1="270" y2="273.75" />
			<text transform="rotate(90,400,277.5)" x="400" y="277.5"></text>
			<text transform="rotate(90,399.99926,277.5)" x="399.99926" y="277.5"></text>
			<line style="stroke: black; stroke-width: 2" x1="474" x2="474" y1="270" y2="273.75" />
			<text transform="rotate(90,474,277.5)" x="474" y="277.5"></text>
			<text transform="rotate(90,473.99926,277.5)" x="473.99926" y="277.5"></text>
			<line style="stroke: black; stroke-width: 2" x1="548" x2="548" y1="270" y2="273.75" />
			<text transform="rotate(90,548,277.5)" x="548" y="277.5"></text>
			<text transform="rotate(90,547.99926,277.5)" x="547.99926" y="277.5"></text>
			<line style="stroke: black; stroke-width: 2" x1="622" x2="622" y1="270" y2="273.75" />
			<text transform="rotate(90,622,277.5)" x="622" y="277.5"></text>
			<text transform="rotate(90,621.99926,277.5)" x="621.99926" y="277.5"></text>
			<line style="stroke: black; stroke-width: 2" x1="696" x2="696" y1="270" y2="273.75" />
			<text transform="rotate(90,696,277.5)" x="696" y="277.5"></text>
			<text transform="rotate(90,695.99926,277.5)" x="695.99926" y="277.5"></text>
			<line style="stroke: black; stroke-width: 2" x1="770" x2="770" y1="270" y2="273.75" />
			<text transform="rotate(90,770,277.5)" x="770" y="277.5"></text>
			<text transform="rotate(90,769.99926,277.5)" x="769.99926" y="277.5"></text>
			<line style="stroke: black; stroke-width: 2" x1="30" x2="26.25" y1="270" y2="270" />
			<text x="0" y="270"></text>
			<text x="29.99926" y="270"></text>
			<line style="stroke: black; stroke-width: 2" x1="30" x2="26.25" y1="230" y2="230" />
			<text x="0" y="230"></text>
			<text x="30.01406" y="230"></text>
			<line style="stroke: black; stroke-width: 2" x1="30" x2="26.25" y1="190" y2="190" />
			<text x="0" y="190"></text>
			<text x="30.02886" y="190"></text>
			<line style="stroke: black; stroke-width: 2" x1="30" x2="26.25" y1="150" y2="150" />
			<text x="0" y="150"></text>
			<text x="30.04366" y="150"></text>
			<line style="stroke: black; stroke-width: 2" x1="30" x2="26.25" y1="110" y2="110" />
			<text x="0" y="110"></text>
			<text x="30.05846" y="110"></text>
			<line style="stroke: black; stroke-width: 2" x1="30" x2="26.25" y1="70" y2="70" />
			<text x="0" y="70"></text>
			<text x="30.07326" y="70"></text>
			<line style="stroke: black; stroke-width: 2" x1="30" x2="26.25" y1="30" y2="30" />
			<text x="0" y="30"></text>
			<text x="30.08806" y="30"></text>
		</g>
	</g>
	<text fill="black" stroke="black" x="40" y="285">0</text>
	<text fill="black" stroke="black" x="380" y="285">250000</text>
	<text fill="black" stroke="black" x="730" y="285">500000</text>
	<text fill="black" stroke="black" x="10" y="260">0</text>
	<text fill="black" stroke="black" x="10" y="160">30</text>
	<text fill="black" stroke="black" x="10" y="45">60</text>
	<g id="n2857101">
		<g id="line7560042" />
		<g id="linen0752827">
			<line style="fill: green; stroke: green; stroke-width: 2" x1="30" x2="30" y1="270" y2="230" />
			<line style="fill: green; stroke: green; stroke-width: 2" x1="30" x2="50.128" y1="230" y2="230" />
			<line style="fill: green; stroke: green; stroke-width: 2" x1="50.128" x2="50.128" y1="230" y2="222" />
			<line style="fill: green; stroke: green; stroke-width: 2" x1="50.128" x2="106.664" y1="222" y2="222" />
			<line style="fill: green; stroke: green; stroke-width: 2" x1="106.664" x2="106.664" y1="222" y2="180" />
			<line style="fill: green; stroke: green; stroke-width: 2" x1="106.664" x2="118.8" y1="180" y2="180" />
			<line style="fill: green; stroke: green; stroke-width: 2" x1="118.8" x2="118.8" y1="180" y2="170" />
			<line style="fill: green; stroke: green; stroke-width: 2" x1="118.8" x2="281.6" y1="170" y2="170" />
			<line style="fill: green; stroke: green; stroke-width: 2" x1="281.6" x2="281.6" y1="170" y2="140" />
			<line style="fill: green; stroke: green; stroke-width: 2" x1="281.6" x2="326" y1="140" y2="140" />
			<line style="fill: green; stroke: green; stroke-width: 2" x1="326" x2="326" y1="140" y2="130" />
			<line style="fill: green; stroke: green; stroke-width: 2" x1="326" x2="770" y1="130" y2="130" />
			<line style="fill: green; stroke: green; stroke-width: 2" x1="770" x2="770" y1="130" y2="116" />
			<line style="fill: green; stroke: green; stroke-width: 2" x1="770" x2="770" y1="116" y2="116" />
			<line style="fill: green; stroke: green; stroke-width: 2" x1="770" x2="770" y1="116" y2="30" />
		</g>
	</g>
	<text fill="green" stroke="green" x="50" y="50">2017-senate-household marginal rate</text>
	<g id="n6131533">
		<g id="line3774424" />
		<g id="linen2319165">
			<line style="fill: blue; stroke: blue; stroke-width: 2" x1="30" x2="30" y1="270" y2="230" />
			<line style="fill: blue; stroke: blue; stroke-width: 2" x1="30" x2="37.4" y1="230" y2="230" />
			<line style="fill: blue; stroke: blue; stroke-width: 2" x1="37.4" x2="43.801" y1="230" y2="230" />
			<line style="fill: blue; stroke: blue; stroke-width: 2" x1="43.801" x2="44.097" y1="230" y2="230" />
			<line style="fill: blue; stroke: blue; stroke-width: 2" x1="44.097" x2="44.8" y1="230" y2="230" />
			<line style="fill: blue; stroke: blue; stroke-width: 2" x1="44.8" x2="49.758" y1="230" y2="230" />
			<line style="fill: blue; stroke: blue; stroke-width: 2" x1="49.758" x2="50.128" y1="230" y2="230" />
			<line style="fill: blue; stroke: blue; stroke-width: 2" x1="50.128" x2="52.2" y1="230" y2="229.253333333333" />
			<line style="fill: blue; stroke: blue; stroke-width: 2" x1="52.2" x2="57.306" y1="229.253333333333" y2="227.89701897019" />
			<line style="fill: blue; stroke: blue; stroke-width: 2" x1="57.306" x2="57.602" y1="227.89701897019" y2="227.833780160858" />
			<line style="fill: blue; stroke: blue; stroke-width: 2" x1="57.602" x2="58.194" y1="227.833780160858" y2="227.711286089239" />
			<line style="fill: blue; stroke: blue; stroke-width: 2" x1="58.194" x2="59.6" y1="227.711286089239" y2="227.44" />
			<line style="fill: blue; stroke: blue; stroke-width: 2" x1="59.6" x2="67" y1="227.44" y2="226.352" />
			<line style="fill: blue; stroke: blue; stroke-width: 2" x1="67" x2="74.4" y1="226.352" y2="225.626666666667" />
			<line style="fill: blue; stroke: blue; stroke-width: 2" x1="74.4" x2="81.8" y1="225.626666666667" y2="225.108571428571" />
			<line style="fill: blue; stroke: blue; stroke-width: 2" x1="81.8" x2="86.166" y1="225.108571428571" y2="224.866930171278" />
			<line style="fill: blue; stroke: blue; stroke-width: 2" x1="86.166" x2="87.276" y1="224.866930171278" y2="224.811369509044" />
			<line style="fill: blue; stroke: blue; stroke-width: 2" x1="87.276" x2="89.2" y1="224.811369509044" y2="224.72" />
			<line style="fill: blue; stroke: blue; stroke-width: 2" x1="89.2" x2="96.6" y1="224.72" y2="224.417777777778" />
			<line style="fill: blue; stroke: blue; stroke-width: 2" x1="96.6" x2="104" y1="224.417777777778" y2="224.176" />
			<line style="fill: blue; stroke: blue; stroke-width: 2" x1="104" x2="105.184" y1="224.176" y2="224.141732283465" />
			<line style="fill: blue; stroke: blue; stroke-width: 2" x1="105.184" x2="106.664" y1="224.141732283465" y2="224.100386100386" />
			<line style="fill: blue; stroke: blue; stroke-width: 2" x1="106.664" x2="111.4" y1="224.100386100386" y2="221.534545454545" />
			<line style="fill: blue; stroke: blue; stroke-width: 2" x1="111.4" x2="118.8" y1="221.534545454545" y2="218.073333333333" />
			<line style="fill: blue; stroke: blue; stroke-width: 2" x1="118.8" x2="126.2" y1="218.073333333333" y2="214.375384615385" />
			<line style="fill: blue; stroke: blue; stroke-width: 2" x1="126.2" x2="133.6" y1="214.375384615385" y2="211.205714285714" />
			<line style="fill: blue; stroke: blue; stroke-width: 2" x1="133.6" x2="140.852" y1="211.205714285714" y2="208.510013351135" />
			<line style="fill: blue; stroke: blue; stroke-width: 2" x1="140.852" x2="141" y1="208.510013351135" y2="208.458666666667" />
			<line style="fill: blue; stroke: blue; stroke-width: 2" x1="141" x2="142.332" y1="208.458666666667" y2="208.002635046113" />
			<line style="fill: blue; stroke: blue; stroke-width: 2" x1="142.332" x2="143.294" y1="208.002635046113" y2="207.679947746571" />
			<line style="fill: blue; stroke: blue; stroke-width: 2" x1="143.294" x2="144.552" y1="207.679947746571" y2="207.266149870801" />
			<line style="fill: blue; stroke: blue; stroke-width: 2" x1="144.552" x2="148.4" y1="207.266149870801" y2="206.055" />
			<line style="fill: blue; stroke: blue; stroke-width: 2" x1="148.4" x2="155.8" y1="206.055" y2="203.934117647059" />
			<line style="fill: blue; stroke: blue; stroke-width: 2" x1="155.8" x2="163.2" y1="203.934117647059" y2="202.048888888889" />
			<line style="fill: blue; stroke: blue; stroke-width: 2" x1="163.2" x2="166.012" y1="202.048888888889" y2="201.386289445049" />
			<line style="fill: blue; stroke: blue; stroke-width: 2" x1="166.012" x2="170.6" y1="201.386289445049" y2="200.362105263158" />
			<line style="fill: blue; stroke: blue; stroke-width: 2" x1="170.6" x2="178" y1="200.362105263158" y2="198.844" />
			<line style="fill: blue; stroke: blue; stroke-width: 2" x1="178" x2="192.8" y1="198.844" y2="196.221818181818" />
			<line style="fill: blue; stroke: blue; stroke-width: 2" x1="192.8" x2="202.679" y1="196.221818181818" y2="194.721662738376" />
			<line style="fill: blue; stroke: blue; stroke-width: 2" x1="202.679" x2="207.6" y1="194.721662738376" y2="194.036666666667" />
			<line style="fill: blue; stroke: blue; stroke-width: 2" x1="207.6" x2="222.4" y1="194.036666666667" y2="192.187692307692" />
			<line style="fill: blue; stroke: blue; stroke-width: 2" x1="222.4" x2="224.176" y1="192.187692307692" y2="191.984756097561" />
			<line style="fill: blue; stroke: blue; stroke-width: 2" x1="224.176" x2="237.2" y1="191.984756097561" y2="190.602857142857" />
			<line style="fill: blue; stroke: blue; stroke-width: 2" x1="237.2" x2="252" y1="190.602857142857" y2="189.229333333333" />
			<line style="fill: blue; stroke: blue; stroke-width: 2" x1="252" x2="253.776" y1="189.229333333333" y2="189.07671957672" />
			<line style="fill: blue; stroke: blue; stroke-width: 2" x1="253.776" x2="256.588" y1="189.07671957672" y2="188.839973873285" />
			<line style="fill: blue; stroke: blue; stroke-width: 2" x1="256.588" x2="266.8" y1="188.839973873285" y2="188.0275" />
			<line style="fill: blue; stroke: blue; stroke-width: 2" x1="266.8" x2="281.6" y1="188.0275" y2="186.967058823529" />
			<line style="fill: blue; stroke: blue; stroke-width: 2" x1="281.6" x2="296.4" y1="186.967058823529" y2="184.357777777778" />
			<line style="fill: blue; stroke: blue; stroke-width: 2" x1="296.4" x2="311.2" y1="184.357777777778" y2="182.023157894737" />
			<line style="fill: blue; stroke: blue; stroke-width: 2" x1="311.2" x2="313.642" y1="182.023157894737" y2="181.661361857553" />
			<line style="fill: blue; stroke: blue; stroke-width: 2" x1="313.642" x2="326" y1="181.661361857553" y2="179.922" />
			<line style="fill: blue; stroke: blue; stroke-width: 2" x1="326" x2="338.358" y1="179.922" y2="177.921286297096" />
			<line style="fill: blue; stroke: blue; stroke-width: 2" x1="338.358" x2="340.8" y1="177.921286297096" y2="177.544761904762" />
			<line style="fill: blue; stroke: blue; stroke-width: 2" x1="340.8" x2="344.5" y1="177.544761904762" y2="176.985411764706" />
			<line style="fill: blue; stroke: blue; stroke-width: 2" x1="344.5" x2="355.6" y1="176.985411764706" y2="175.383636363636" />
			<line style="fill: blue; stroke: blue; stroke-width: 2" x1="355.6" x2="370.4" y1="175.383636363636" y2="173.410434782609" />
			<line style="fill: blue; stroke: blue; stroke-width: 2" x1="370.4" x2="371.066" y1="173.410434782609" y2="173.325667172923" />
			<line style="fill: blue; stroke: blue; stroke-width: 2" x1="371.066" x2="375.358" y1="173.325667172923" y2="172.787229483608" />
			<line style="fill: blue; stroke: blue; stroke-width: 2" x1="375.358" x2="378.318" y1="172.787229483608" y2="172.423624389208" />
			<line style="fill: blue; stroke: blue; stroke-width: 2" x1="378.318" x2="385.2" y1="172.423624389208" y2="171.601666666667" />
			<line style="fill: blue; stroke: blue; stroke-width: 2" x1="385.2" x2="400" y1="171.601666666667" y2="169.9376" />
			<line style="fill: blue; stroke: blue; stroke-width: 2" x1="400" x2="414.8" y1="169.9376" y2="168.401538461538" />
			<line style="fill: blue; stroke: blue; stroke-width: 2" x1="414.8" x2="429.6" y1="168.401538461538" y2="166.979259259259" />
			<line style="fill: blue; stroke: blue; stroke-width: 2" x1="429.6" x2="437" y1="166.979259259259" y2="166.306909090909" />
			<line style="fill: blue; stroke: blue; stroke-width: 2" x1="437" x2="444.4" y1="166.306909090909" y2="165.658571428571" />
			<line style="fill: blue; stroke: blue; stroke-width: 2" x1="444.4" x2="459.2" y1="165.658571428571" y2="164.428965517241" />
			<line style="fill: blue; stroke: blue; stroke-width: 2" x1="459.2" x2="474" y1="164.428965517241" y2="163.281333333333" />
			<line style="fill: blue; stroke: blue; stroke-width: 2" x1="474" x2="548" y1="163.281333333333" y2="158.526857142857" />
			<line style="fill: blue; stroke: blue; stroke-width: 2" x1="548" x2="607.2" y1="158.526857142857" y2="155.601025641026" />
			<line style="fill: blue; stroke: blue; stroke-width: 2" x1="607.2" x2="622" y1="155.601025641026" y2="154.961" />
			<line style="fill: blue; stroke: blue; stroke-width: 2" x1="622" x2="646.716" y1="154.961" y2="153.960643148548" />
			<line style="fill: blue; stroke: blue; stroke-width: 2" x1="646.716" x2="649.232" y1="153.960643148548" y2="153.863288718929" />
			<line style="fill: blue; stroke: blue; stroke-width: 2" x1="649.232" x2="687.934" y1="153.863288718929" y2="152.45956585311" />
			<line style="fill: blue; stroke: blue; stroke-width: 2" x1="687.934" x2="696" y1="152.45956585311" y2="152.187555555556" />
			<line style="fill: blue; stroke: blue; stroke-width: 2" x1="696" x2="726.636" y1="152.187555555556" y2="151.211812194604" />
			<line style="fill: blue; stroke: blue; stroke-width: 2" x1="726.636" x2="770" y1="151.211812194604" y2="149.9688" />
			<line style="fill: blue; stroke: blue; stroke-width: 2" x1="770" x2="770" y1="149.9688" y2="30" />
		</g>
	</g>
	<text fill="blue" stroke="blue" x="50" y="70">2017-senate-household effective rate</text>
	<g id="n6808042">
		<g id="line9760220" />
		<g id="linen1549177">
			<line style="fill: red; stroke: red; stroke-width: 2" x1="30" x2="30" y1="270" y2="230" />
			<line style="fill: red; stroke: red; stroke-width: 2" x1="30" x2="43.801" y1="230" y2="230" />
			<line style="fill: red; stroke: red; stroke-width: 2" x1="43.801" x2="43.801" y1="230" y2="210" />
			<line style="fill: red; stroke: red; stroke-width: 2" x1="43.801" x2="86.166" y1="210" y2="210" />
			<line style="fill: red; stroke: red; stroke-width: 2" x1="86.166" x2="86.166" y1="210" y2="170" />
			<line style="fill: red; stroke: red; stroke-width: 2" x1="86.166" x2="166.012" y1="170" y2="170" />
			<line style="fill: red; stroke: red; stroke-width: 2" x1="166.012" x2="166.012" y1="170" y2="158" />
			<line style="fill: red; stroke: red; stroke-width: 2" x1="166.012" x2="313.642" y1="158" y2="158" />
			<line style="fill: red; stroke: red; stroke-width: 2" x1="313.642" x2="313.642" y1="158" y2="138" />
			<line style="fill: red; stroke: red; stroke-width: 2" x1="313.642" x2="646.716" y1="138" y2="138" />
			<line style="fill: red; stroke: red; stroke-width: 2" x1="646.716" x2="646.716" y1="138" y2="130" />
			<line style="fill: red; stroke: red; stroke-width: 2" x1="646.716" x2="649.232" y1="130" y2="130" />
			<line style="fill: red; stroke: red; stroke-width: 2" x1="649.232" x2="649.232" y1="130" y2="111.6" />
			<line style="fill: red; stroke: red; stroke-width: 2" x1="649.232" x2="770" y1="111.6" y2="111.6" />
			<line style="fill: red; stroke: red; stroke-width: 2" x1="770" x2="770" y1="111.6" y2="30" />
		</g>
	</g>
	<text fill="red" stroke="red" x="50" y="90">2017-single marginal rate</text>
	<g id="n7710436">
		<g id="line4237409" />
		<g id="linen1821144">
			<line style="fill: orange; stroke: orange; stroke-width: 2" x1="30" x2="30" y1="270" y2="230" />
			<line style="fill: orange; stroke: orange; stroke-width: 2" x1="30" x2="37.4" y1="230" y2="230" />
			<line style="fill: orange; stroke: orange; stroke-width: 2" x1="37.4" x2="43.801" y1="230" y2="230" />
			<line style="fill: orange; stroke: orange; stroke-width: 2" x1="43.801" x2="44.097" y1="230" y2="229.580052493438" />
			<line style="fill: orange; stroke: orange; stroke-width: 2" x1="44.097" x2="44.8" y1="229.580052493438" y2="228.65" />
			<line style="fill: orange; stroke: orange; stroke-width: 2" x1="44.8" x2="49.758" y1="228.65" y2="223.970037453184" />
			<line style="fill: orange; stroke: orange; stroke-width: 2" x1="49.758" x2="50.128" y1="223.970037453184" y2="223.713235294118" />
			<line style="fill: orange; stroke: orange; stroke-width: 2" x1="50.128" x2="52.2" y1="223.713235294118" y2="222.433333333333" />
			<line style="fill: orange; stroke: orange; stroke-width: 2" x1="52.2" x2="57.306" y1="222.433333333333" y2="220.108401084011" />
			<line style="fill: orange; stroke: orange; stroke-width: 2" x1="57.306" x2="57.602" y1="220.108401084011" y2="220" />
			<line style="fill: orange; stroke: orange; stroke-width: 2" x1="57.602" x2="58.194" y1="220" y2="219.790026246719" />
			<line style="fill: orange; stroke: orange; stroke-width: 2" x1="58.194" x2="59.6" y1="219.790026246719" y2="219.325" />
			<line style="fill: orange; stroke: orange; stroke-width: 2" x1="59.6" x2="67" y1="219.325" y2="217.46" />
			<line style="fill: orange; stroke: orange; stroke-width: 2" x1="67" x2="74.4" y1="217.46" y2="216.216666666667" />
			<line style="fill: orange; stroke: orange; stroke-width: 2" x1="74.4" x2="81.8" y1="216.216666666667" y2="215.328571428571" />
			<line style="fill: orange; stroke: orange; stroke-width: 2" x1="81.8" x2="86.166" y1="215.328571428571" y2="214.914361001318" />
			<line style="fill: orange; stroke: orange; stroke-width: 2" x1="86.166" x2="87.276" y1="214.914361001318" y2="214.043927648579" />
			<line style="fill: orange; stroke: orange; stroke-width: 2" x1="87.276" x2="89.2" y1="214.043927648579" y2="212.6125" />
			<line style="fill: orange; stroke: orange; stroke-width: 2" x1="89.2" x2="96.6" y1="212.6125" y2="207.877777777778" />
			<line style="fill: orange; stroke: orange; stroke-width: 2" x1="96.6" x2="104" y1="207.877777777778" y2="204.09" />
			<line style="fill: orange; stroke: orange; stroke-width: 2" x1="104" x2="105.184" y1="204.09" y2="203.553149606299" />
			<line style="fill: orange; stroke: orange; stroke-width: 2" x1="105.184" x2="106.664" y1="203.553149606299" y2="202.905405405405" />
			<line style="fill: orange; stroke: orange; stroke-width: 2" x1="106.664" x2="111.4" y1="202.905405405405" y2="200.990909090909" />
			<line style="fill: orange; stroke: orange; stroke-width: 2" x1="111.4" x2="118.8" y1="200.990909090909" y2="198.408333333333" />
			<line style="fill: orange; stroke: orange; stroke-width: 2" x1="118.8" x2="126.2" y1="198.408333333333" y2="196.223076923077" />
			<line style="fill: orange; stroke: orange; stroke-width: 2" x1="126.2" x2="133.6" y1="196.223076923077" y2="194.35" />
			<line style="fill: orange; stroke: orange; stroke-width: 2" x1="133.6" x2="140.852" y1="194.35" y2="192.757009345794" />
			<line style="fill: orange; stroke: orange; stroke-width: 2" x1="140.852" x2="141" y1="192.757009345794" y2="192.726666666667" />
			<line style="fill: orange; stroke: orange; stroke-width: 2" x1="141" x2="142.332" y1="192.726666666667" y2="192.457180500659" />
			<line style="fill: orange; stroke: orange; stroke-width: 2" x1="142.332" x2="143.294" y1="192.457180500659" y2="192.26649248857" />
			<line style="fill: orange; stroke: orange; stroke-width: 2" x1="143.294" x2="144.552" y1="192.26649248857" y2="192.021963824289" />
			<line style="fill: orange; stroke: orange; stroke-width: 2" x1="144.552" x2="148.4" y1="192.021963824289" y2="191.30625" />
			<line style="fill: orange; stroke: orange; stroke-width: 2" x1="148.4" x2="155.8" y1="191.30625" y2="190.052941176471" />
			<line style="fill: orange; stroke: orange; stroke-width: 2" x1="155.8" x2="163.2" y1="190.052941176471" y2="188.938888888889" />
			<line style="fill: orange; stroke: orange; stroke-width: 2" x1="163.2" x2="166.012" y1="188.938888888889" y2="188.54733405876" />
			<line style="fill: orange; stroke: orange; stroke-width: 2" x1="166.012" x2="170.6" y1="188.54733405876" y2="187.550526315789" />
			<line style="fill: orange; stroke: orange; stroke-width: 2" x1="170.6" x2="178" y1="187.550526315789" y2="186.073" />
			<line style="fill: orange; stroke: orange; stroke-width: 2" x1="178" x2="192.8" y1="186.073" y2="183.520909090909" />
			<line style="fill: orange; stroke: orange; stroke-width: 2" x1="192.8" x2="202.679" y1="183.520909090909" y2="182.060852796229" />
			<line style="fill: orange; stroke: orange; stroke-width: 2" x1="202.679" x2="207.6" y1="182.060852796229" y2="181.394166666667" />
			<line style="fill: orange; stroke: orange; stroke-width: 2" x1="207.6" x2="222.4" y1="181.394166666667" y2="179.594615384615" />
			<line style="fill: orange; stroke: orange; stroke-width: 2" x1="222.4" x2="224.176" y1="179.594615384615" y2="179.397103658537" />
			<line style="fill: orange; stroke: orange; stroke-width: 2" x1="224.176" x2="237.2" y1="179.397103658537" y2="178.052142857143" />
			<line style="fill: orange; stroke: orange; stroke-width: 2" x1="237.2" x2="252" y1="178.052142857143" y2="176.715333333333" />
			<line style="fill: orange; stroke: orange; stroke-width: 2" x1="252" x2="253.776" y1="176.715333333333" y2="176.566798941799" />
			<line style="fill: orange; stroke: orange; stroke-width: 2" x1="253.776" x2="256.588" y1="176.566798941799" y2="176.336381450033" />
			<line style="fill: orange; stroke: orange; stroke-width: 2" x1="256.588" x2="266.8" y1="176.336381450033" y2="175.545625" />
			<line style="fill: orange; stroke: orange; stroke-width: 2" x1="266.8" x2="281.6" y1="175.545625" y2="174.513529411765" />
			<line style="fill: orange; stroke: orange; stroke-width: 2" x1="281.6" x2="296.4" y1="174.513529411765" y2="173.596111111111" />
			<line style="fill: orange; stroke: orange; stroke-width: 2" x1="296.4" x2="311.2" y1="173.596111111111" y2="172.775263157895" />
			<line style="fill: orange; stroke: orange; stroke-width: 2" x1="311.2" x2="313.642" y1="172.775263157895" y2="172.648056352726" />
			<line style="fill: orange; stroke: orange; stroke-width: 2" x1="313.642" x2="326" y1="172.648056352726" y2="171.2015" />
			<line style="fill: orange; stroke: orange; stroke-width: 2" x1="326" x2="338.358" y1="171.2015" y2="169.870890328774" />
			<line style="fill: orange; stroke: orange; stroke-width: 2" x1="338.358" x2="340.8" y1="169.870890328774" y2="169.620476190476" />
			<line style="fill: orange; stroke: orange; stroke-width: 2" x1="340.8" x2="344.5" y1="169.620476190476" y2="169.248470588235" />
			<line style="fill: orange; stroke: orange; stroke-width: 2" x1="344.5" x2="355.6" y1="169.248470588235" y2="168.183181818182" />
			<line style="fill: orange; stroke: orange; stroke-width: 2" x1="355.6" x2="370.4" y1="168.183181818182" y2="166.870869565217" />
			<line style="fill: orange; stroke: orange; stroke-width: 2" x1="370.4" x2="371.066" y1="166.870869565217" y2="166.814493382512" />
			<line style="fill: orange; stroke: orange; stroke-width: 2" x1="371.066" x2="375.358" y1="166.814493382512" y2="166.456395971716" />
			<line style="fill: orange; stroke: orange; stroke-width: 2" x1="375.358" x2="378.318" y1="166.456395971716" y2="166.214574038666" />
			<line style="fill: orange; stroke: orange; stroke-width: 2" x1="378.318" x2="385.2" y1="166.214574038666" y2="165.667916666667" />
			<line style="fill: orange; stroke: orange; stroke-width: 2" x1="385.2" x2="400" y1="165.667916666667" y2="164.5612" />
			<line style="fill: orange; stroke: orange; stroke-width: 2" x1="400" x2="414.8" y1="164.5612" y2="163.539615384615" />
			<line style="fill: orange; stroke: orange; stroke-width: 2" x1="414.8" x2="429.6" y1="163.539615384615" y2="162.593703703704" />
			<line style="fill: orange; stroke: orange; stroke-width: 2" x1="429.6" x2="437" y1="162.593703703704" y2="162.146545454545" />
			<line style="fill: orange; stroke: orange; stroke-width: 2" x1="437" x2="444.4" y1="162.146545454545" y2="161.715357142857" />
			<line style="fill: orange; stroke: orange; stroke-width: 2" x1="444.4" x2="459.2" y1="161.715357142857" y2="160.897586206897" />
			<line style="fill: orange; stroke: orange; stroke-width: 2" x1="459.2" x2="474" y1="160.897586206897" y2="160.134333333333" />
			<line style="fill: orange; stroke: orange; stroke-width: 2" x1="474" x2="548" y1="160.134333333333" y2="156.972285714286" />
			<line style="fill: orange; stroke: orange; stroke-width: 2" x1="548" x2="607.2" y1="156.972285714286" y2="155.02641025641" />
			<line style="fill: orange; stroke: orange; stroke-width: 2" x1="607.2" x2="622" y1="155.02641025641" y2="154.60075" />
			<line style="fill: orange; stroke: orange; stroke-width: 2" x1="622" x2="646.716" y1="154.60075" y2="153.935445164387" />
			<line style="fill: orange; stroke: orange; stroke-width: 2" x1="646.716" x2="649.232" y1="153.935445164387" y2="153.838193116635" />
			<line style="fill: orange; stroke: orange; stroke-width: 2" x1="649.232" x2="687.934" y1="153.838193116635" y2="151.353593521539" />
			<line style="fill: orange; stroke: orange; stroke-width: 2" x1="687.934" x2="696" y1="151.353593521539" y2="150.872133333333" />
			<line style="fill: orange; stroke: orange; stroke-width: 2" x1="696" x2="726.636" y1="150.872133333333" y2="149.14506054812" />
			<line style="fill: orange; stroke: orange; stroke-width: 2" x1="726.636" x2="770" y1="149.14506054812" y2="146.94492" />
			<line style="fill: orange; stroke: orange; stroke-width: 2" x1="770" x2="770" y1="146.94492" y2="30" />
		</g>
	</g>
	<text fill="orange" stroke="orange" x="50" y="110">2017-single effective rate</text>
	<!-- 
	Generated using the Perl SVG Module V2.78
	by Ronan Oger
	Info: http://www.roitsystems.com/
 -->
</svg>