<?xml version="1.0" encoding="UTF-8" standalone="yes"?>
<!DOCTYPE svg PUBLIC "-//W3C//DTD SVG 1.0//EN" "http://www.w3.org/TR/2001/REC-SVG-20010904/DTD/svg10.dtd">
<svg height="300" width="800" xmlns="http://www.w3.org/2000/svg" xmlns:svg="http://www.w3.org/2000/svg" xmlns:xlink="http://www.w3.org/1999/xlink">
	<g id="n8474015">
		<g id="axis4152835" />
		<g id="axisn8420344">
			<line style="stroke: black; stroke-width: 2" x1="30" x2="770" y1="270" y2="270" />
			<line style="stroke: black; stroke-width: 2" x1="30" x2="30" y1="30" y2="270" />
			<line style="stroke: black; stroke-width: 2" x1="30" x2="30" y1="270" y2="273.75" />
			<text transform="rotate(90,30,277.5)" x="30" y="277.5"></text>
			<text transform="rotate(90,29.99926,277.5)" x="29.99926" y="277.5"></text>
			<line style="stroke: black; stroke-width: 2" x1="104" x2="104" y1="270" y2="273.75" />
			<text transform="rotate(90,104,277.5)" x="104" y="277.5"></text>
			<text transform="rotate(90,103.99926,277.5)" x="103.99926" y="277.5"></text>
			<line style="stroke: black; stroke-width: 2" x1="178" x2="178" y1="270" y2="273.75" />
			<text transform="rotate(90,178,277.5)" x="178" y="277.5"></text>
			<text transform="rotate(90,177.99926,277.5)" x="177.99926" y="277.5"></text>
			<line style="stroke: black; stroke-width: 2" x1="252" x2="252" y1="270" y2="273.75" />
			<text transform="rotate(90,252,277.5)" x="252" y="277.5"></text>
			<text transform="rotate(90,251.99926,277.5)" x="251.99926" y="277.5"></text>
			<line style="stroke: black; stroke-width: 2" x1="326" x2="326" y1="270" y2="273.75" />
			<text transform="rotate(90,326,277.5)" x="326" y="277.5"></text>
			<text transform="rotate(90,325.99926,277.5)" x="325.99926" y="277.5"></text>
			<line style="stroke: black; stroke-width: 2" x1="400" x2="400" y1="270" y2="273.75" />
			<text transform="rotate(90,400,277.5)" x="400" y="277.5"></text>
			<text transform="rotate(90,399.99926,277.5)" x="399.99926" y="277.5"></text>
			<line style="stroke: black; stroke-width: 2" x1="474" x2="474" y1="270" y2="273.75" />
			<text transform="rotate(90,474,277.5)" x="474" y="277.5"></text>
			<text transform="rotate(90,473.99926,277.5)" x="473.99926" y="277.5"></text>
			<line style="stroke: black; stroke-width: 2" x1="548" x2="548" y1="270" y2="273.75" />
			<text transform="rotate(90,548,277.5)" x="548" y="277.5"></text>
			<text transform="rotate(90,547.99926,277.5)" x="547.99926" y="277.5"></text>
			<line style="stroke: black; stroke-width: 2" x1="622" x2="622" y1="270" y2="273.75" />
			<text transform="rotate(90,622,277.5)" x="622" y="277.5"></text>
			<text transform="rotate(90,621.99926,277.5)" x="621.99926" y="277.5"></text>
			<line style="stroke: black; stroke-width: 2" x1="696" x2="696" y1="270" y2="273.75" />
			<text transform="rotate(90,696,277.5)" x="696" y="277.5"></text>
			<text transform="rotate(90,695.99926,277.5)" x="695.99926" y="277.5"></text>
			<line style="stroke: black; stroke-width: 2" x1="770" x2="770" y1="270" y2="273.75" />
			<text transform="rotate(90,770,277.5)" x="770" y="277.5"></text>
			<text transform="rotate(90,769.99926,277.5)" x="769.99926" y="277.5"></text>
			<line style="stroke: black; stroke-width: 2" x1="30" x2="26.25" y1="270" y2="270" />
			<text x="0" y="270"></text>
			<text x="29.99926" y="270"></text>
			<line style="stroke: black; stroke-width: 2" x1="30" x2="26.25" y1="230" y2="230" />
			<text x="0" y="230"></text>
			<text x="30.01406" y="230"></text>
			<line style="stroke: black; stroke-width: 2" x1="30" x2="26.25" y1="190" y2="190" />
			<text x="0" y="190"></text>
			<text x="30.02886" y="190"></text>
			<line style="stroke: black; stroke-width: 2" x1="30" x2="26.25" y1="150" y2="150" />
			<text x="0" y="150"></text>
			<text x="30.04366" y="150"></text>
			<line style="stroke: black; stroke-width: 2" x1="30" x2="26.25" y1="110" y2="110" />
			<text x="0" y="110"></text>
			<text x="30.05846" y="110"></text>
			<line style="stroke: black; stroke-width: 2" x1="30" x2="26.25" y1="70" y2="70" />
			<text x="0" y="70"></text>
			<text x="30.07326" y="70"></text>
			<line style="stroke: black; stroke-width: 2" x1="30" x2="26.25" y1="30" y2="30" />
			<text x="0" y="30"></text>
			<text x="30.08806" y="30"></text>
		</g>
	</g>
	<text fill="black" stroke="black" x="40" y="285">0</text>
	<text fill="black" stroke="black" x="380" y="285">250000</text>
	<text fill="black" stroke="black" x="730" y="285">500000</text>
	<text fill="black" stroke="black" x="10" y="260">0</text>
	<text fill="black" stroke="black" x="10" y="160">30</text>
	<text fill="black" stroke="black" x="10" y="45">60</text>
	<g id="n3850503">
		<g id="line1824270" />
		<g id="linen9131087">
			<line style="fill: green; stroke: green; stroke-width: 2" x1="30" x2="30" y1="270" y2="230" />
			<line style="fill: green; stroke: green; stroke-width: 2" x1="30" x2="50.128" y1="230" y2="230" />
			<line style="fill: green; stroke: green; stroke-width: 2" x1="50.128" x2="50.128" y1="230" y2="222" />
			<line style="fill: green; stroke: green; stroke-width: 2" x1="50.128" x2="106.664" y1="222" y2="222" />
			<line style="fill: green; stroke: green; stroke-width: 2" x1="106.664" x2="106.664" y1="222" y2="180" />
			<line style="fill: green; stroke: green; stroke-width: 2" x1="106.664" x2="118.8" y1="180" y2="180" />
			<line style="fill: green; stroke: green; stroke-width: 2" x1="118.8" x2="118.8" y1="180" y2="170" />
			<line style="fill: green; stroke: green; stroke-width: 2" x1="118.8" x2="281.6" y1="170" y2="170" />
			<line style="fill: green; stroke: green; stroke-width: 2" x1="281.6" x2="281.6" y1="170" y2="140" />
			<line style="fill: green; stroke: green; stroke-width: 2" x1="281.6" x2="326" y1="140" y2="140" />
			<line style="fill: green; stroke: green; stroke-width: 2" x1="326" x2="326" y1="140" y2="130" />
			<line style="fill: green; stroke: green; stroke-width: 2" x1="326" x2="770" y1="130" y2="130" />
			<line style="fill: green; stroke: green; stroke-width: 2" x1="770" x2="770" y1="130" y2="116" />
			<line style="fill: green; stroke: green; stroke-width: 2" x1="770" x2="770" y1="116" y2="116" />
			<line style="fill: green; stroke: green; stroke-width: 2" x1="770" x2="770" y1="116" y2="30" />
		</g>
	</g>
	<text fill="green" stroke="green" x="50" y="50">2017-senate-household marginal rate</text>
	<g id="n9201628">
		<g id="line7412154" />
		<g id="linen5949536">
			<line style="fill: blue; stroke: blue; stroke-width: 2" x1="30" x2="30" y1="270" y2="230" />
			<line style="fill: blue; stroke: blue; stroke-width: 2" x1="30" x2="37.4" y1="230" y2="230" />
			<line style="fill: blue; stroke: blue; stroke-width: 2" x1="37.4" x2="43.801" y1="230" y2="230" />
			<line style="fill: blue; stroke: blue; stroke-width: 2" x1="43.801" x2="44.097" y1="230" y2="230" />
			<line style="fill: blue; stroke: blue; stroke-width: 2" x1="44.097" x2="44.8" y1="230" y2="230" />
			<line style="fill: blue; stroke: blue; stroke-width: 2" x1="44.8" x2="49.758" y1="230" y2="230" />
			<line style="fill: blue; stroke: blue; stroke-width: 2" x1="49.758" x2="50.128" y1="230" y2="230" />
			<line style="fill: blue; stroke: blue; stroke-width: 2" x1="50.128" x2="52.2" y1="230" y2="229.253333333333" />
			<line style="fill: blue; stroke: blue; stroke-width: 2" x1="52.2" x2="57.306" y1="229.253333333333" y2="227.89701897019" />
			<line style="fill: blue; stroke: blue; stroke-width: 2" x1="57.306" x2="57.602" y1="227.89701897019" y2="227.833780160858" />
			<line style="fill: blue; stroke: blue; stroke-width: 2" x1="57.602" x2="58.194" y1="227.833780160858" y2="227.711286089239" />
			<line style="fill: blue; stroke: blue; stroke-width: 2" x1="58.194" x2="59.6" y1="227.711286089239" y2="227.44" />
			<line style="fill: blue; stroke: blue; stroke-width: 2" x1="59.6" x2="67" y1="227.44" y2="226.352" />
			<line style="fill: blue; stroke: blue; stroke-width: 2" x1="67" x2="74.4" y1="226.352" y2="225.626666666667" />
			<line style="fill: blue; stroke: blue; stroke-width: 2" x1="74.4" x2="81.8" y1="225.626666666667" y2="225.108571428571" />
			<line style="fill: blue; stroke: blue; stroke-width: 2" x1="81.8" x2="86.166" y1="225.108571428571" y2="224.866930171278" />
			<line style="fill: blue; stroke: blue; stroke-width: 2" x1="86.166" x2="87.276" y1="224.866930171278" y2="224.811369509044" />
			<line style="fill: blue; stroke: blue; stroke-width: 2" x1="87.276" x2="89.2" y1="224.811369509044" y2="224.72" />
			<line style="fill: blue; stroke: blue; stroke-width: 2" x1="89.2" x2="96.6" y1="224.72" y2="224.417777777778" />
			<line style="fill: blue; stroke: blue; stroke-width: 2" x1="96.6" x2="104" y1="224.417777777778" y2="224.176" />
			<line style="fill: blue; stroke: blue; stroke-width: 2" x1="104" x2="105.184" y1="224.176" y2="224.141732283465" />
			<line style="fill: blue; stroke: blue; stroke-width: 2" x1="105.184" x2="106.664" y1="224.141732283465" y2="224.100386100386" />
			<line style="fill: blue; stroke: blue; stroke-width: 2" x1="106.664" x2="111.4" y1="224.100386100386" y2="221.534545454545" />
			<line style="fill: blue; stroke: blue; stroke-width: 2" x1="111.4" x2="118.8" y1="221.534545454545" y2="218.073333333333" />
			<line style="fill: blue; stroke: blue; stroke-width: 2" x1="118.8" x2="126.2" y1="218.073333333333" y2="214.375384615385" />
			<line style="fill: blue; stroke: blue; stroke-width: 2" x1="126.2" x2="133.6" y1="214.375384615385" y2="211.205714285714" />
			<line style="fill: blue; stroke: blue; stroke-width: 2" x1="133.6" x2="140.852" y1="211.205714285714" y2="208.510013351135" />
			<line style="fill: blue; stroke: blue; stroke-width: 2" x1="140.852" x2="141" y1="208.510013351135" y2="208.458666666667" />
			<line style="fill: blue; stroke: blue; stroke-width: 2" x1="141" x2="142.332" y1="208.458666666667" y2="208.002635046113" />
			<line style="fill: blue; stroke: blue; stroke-width: 2" x1="142.332" x2="143.294" y1="208.002635046113" y2="207.679947746571" />
			<line style="fill: blue; stroke: blue; stroke-width: 2" x1="143.294" x2="144.552" y1="207.679947746571" y2="207.266149870801" />
			<line style="fill: blue; stroke: blue; stroke-width: 2" x1="144.552" x2="148.4" y1="207.266149870801" y2="206.055" />
			<line style="fill: blue; stroke: blue; stroke-width: 2" x1="148.4" x2="155.8" y1="206.055" y2="203.934117647059" />
			<line style="fill: blue; stroke: blue; stroke-width: 2" x1="155.8" x2="163.2" y1="203.934117647059" y2="202.048888888889" />
			<line style="fill: blue; stroke: blue; stroke-width: 2" x1="163.2" x2="166.012" y1="202.048888888889" y2="201.386289445049" />
			<line style="fill: blue; stroke: blue; stroke-width: 2" x1="166.012" x2="170.6" y1="201.386289445049" y2="200.362105263158" />
			<line style="fill: blue; stroke: blue; stroke-width: 2" x1="170.6" x2="178" y1="200.362105263158" y2="198.844" />
			<line style="fill: blue; stroke: blue; stroke-width: 2" x1="178" x2="192.8" y1="198.844" y2="196.221818181818" />
			<line style="fill: blue; stroke: blue; stroke-width: 2" x1="192.8" x2="202.679" y1="196.221818181818" y2="194.721662738376" />
			<line style="fill: blue; stroke: blue; stroke-width: 2" x1="202.679" x2="207.6" y1="194.721662738376" y2="194.036666666667" />
			<line style="fill: blue; stroke: blue; stroke-width: 2" x1="207.6" x2="222.4" y1="194.036666666667" y2="192.187692307692" />
			<line style="fill: blue; stroke: blue; stroke-width: 2" x1="222.4" x2="224.176" y1="192.187692307692" y2="191.984756097561" />
			<line style="fill: blue; stroke: blue; stroke-width: 2" x1="224.176" x2="237.2" y1="191.984756097561" y2="190.602857142857" />
			<line style="fill: blue; stroke: blue; stroke-width: 2" x1="237.2" x2="252" y1="190.602857142857" y2="189.229333333333" />
			<line style="fill: blue; stroke: blue; stroke-width: 2" x1="252" x2="253.776" y1="189.229333333333" y2="189.07671957672" />
			<line style="fill: blue; stroke: blue; stroke-width: 2" x1="253.776" x2="256.588" y1="189.07671957672" y2="188.839973873285" />
			<line style="fill: blue; stroke: blue; stroke-width: 2" x1="256.588" x2="266.8" y1="188.839973873285" y2="188.0275" />
			<line style="fill: blue; stroke: blue; stroke-width: 2" x1="266.8" x2="281.6" y1="188.0275" y2="186.967058823529" />
			<line style="fill: blue; stroke: blue; stroke-width: 2" x1="281.6" x2="296.4" y1="186.967058823529" y2="184.357777777778" />
			<line style="fill: blue; stroke: blue; stroke-width: 2" x1="296.4" x2="311.2" y1="184.357777777778" y2="182.023157894737" />
			<line style="fill: blue; stroke: blue; stroke-width: 2" x1="311.2" x2="313.642" y1="182.023157894737" y2="181.661361857553" />
			<line style="fill: blue; stroke: blue; stroke-width: 2" x1="313.642" x2="326" y1="181.661361857553" y2="179.922" />
			<line style="fill: blue; stroke: blue; stroke-width: 2" x1="326" x2="338.358" y1="179.922" y2="177.921286297096" />
			<line style="fill: blue; stroke: blue; stroke-width: 2" x1="338.358" x2="340.8" y1="177.921286297096" y2="177.544761904762" />
			<line style="fill: blue; stroke: blue; stroke-width: 2" x1="340.8" x2="344.5" y1="177.544761904762" y2="176.985411764706" />
			<line style="fill: blue; stroke: blue; stroke-width: 2" x1="344.5" x2="355.6" y1="176.985411764706" y2="175.383636363636" />
			<line style="fill: blue; stroke: blue; stroke-width: 2" x1="355.6" x2="370.4" y1="175.383636363636" y2="173.410434782609" />
			<line style="fill: blue; stroke: blue; stroke-width: 2" x1="370.4" x2="371.066" y1="173.410434782609" y2="173.325667172923" />
			<line style="fill: blue; stroke: blue; stroke-width: 2" x1="371.066" x2="375.358" y1="173.325667172923" y2="172.787229483608" />
			<line style="fill: blue; stroke: blue; stroke-width: 2" x1="375.358" x2="378.318" y1="172.787229483608" y2="172.423624389208" />
			<line style="fill: blue; stroke: blue; stroke-width: 2" x1="378.318" x2="385.2" y1="172.423624389208" y2="171.601666666667" />
			<line style="fill: blue; stroke: blue; stroke-width: 2" x1="385.2" x2="400" y1="171.601666666667" y2="169.9376" />
			<line style="fill: blue; stroke: blue; stroke-width: 2" x1="400" x2="414.8" y1="169.9376" y2="168.401538461538" />
			<line style="fill: blue; stroke: blue; stroke-width: 2" x1="414.8" x2="429.6" y1="168.401538461538" y2="166.979259259259" />
			<line style="fill: blue; stroke: blue; stroke-width: 2" x1="429.6" x2="437" y1="166.979259259259" y2="166.306909090909" />
			<line style="fill: blue; stroke: blue; stroke-width: 2" x1="437" x2="444.4" y1="166.306909090909" y2="165.658571428571" />
			<line style="fill: blue; stroke: blue; stroke-width: 2" x1="444.4" x2="459.2" y1="165.658571428571" y2="164.428965517241" />
			<line style="fill: blue; stroke: blue; stroke-width: 2" x1="459.2" x2="474" y1="164.428965517241" y2="163.281333333333" />
			<line style="fill: blue; stroke: blue; stroke-width: 2" x1="474" x2="548" y1="163.281333333333" y2="158.526857142857" />
			<line style="fill: blue; stroke: blue; stroke-width: 2" x1="548" x2="607.2" y1="158.526857142857" y2="155.601025641026" />
			<line style="fill: blue; stroke: blue; stroke-width: 2" x1="607.2" x2="622" y1="155.601025641026" y2="154.961" />
			<line style="fill: blue; stroke: blue; stroke-width: 2" x1="622" x2="646.716" y1="154.961" y2="153.960643148548" />
			<line style="fill: blue; stroke: blue; stroke-width: 2" x1="646.716" x2="649.232" y1="153.960643148548" y2="153.863288718929" />
			<line style="fill: blue; stroke: blue; stroke-width: 2" x1="649.232" x2="687.934" y1="153.863288718929" y2="152.45956585311" />
			<line style="fill: blue; stroke: blue; stroke-width: 2" x1="687.934" x2="696" y1="152.45956585311" y2="152.187555555556" />
			<line style="fill: blue; stroke: blue; stroke-width: 2" x1="696" x2="726.636" y1="152.187555555556" y2="151.211812194604" />
			<line style="fill: blue; stroke: blue; stroke-width: 2" x1="726.636" x2="770" y1="151.211812194604" y2="149.9688" />
			<line style="fill: blue; stroke: blue; stroke-width: 2" x1="770" x2="770" y1="149.9688" y2="30" />
		</g>
	</g>
	<text fill="blue" stroke="blue" x="50" y="70">2017-senate-household effective rate</text>
	<g id="n6963551">
		<g id="line7640848" />
		<g id="linen4857008">
			<line style="fill: red; stroke: red; stroke-width: 2" x1="30" x2="30" y1="270" y2="246" />
			<line style="fill: red; stroke: red; stroke-width: 2" x1="30" x2="400" y1="246" y2="90" />
			<line style="fill: red; stroke: red; stroke-width: 2" x1="400" x2="770" y1="90" y2="90" />
			<line style="fill: red; stroke: red; stroke-width: 2" x1="770" x2="770" y1="90" y2="30" />
		</g>
	</g>
	<text fill="red" stroke="red" x="50" y="90">Slant-6-45-250 marginal rate</text>
	<g id="n1918048">
		<g id="line4595762" />
		<g id="linen6675825">
			<line style="fill: orange; stroke: orange; stroke-width: 2" x1="30" x2="30" y1="270" y2="246" />
			<line style="fill: orange; stroke: orange; stroke-width: 2" x1="30" x2="400" y1="246" y2="168" />
			<line style="fill: orange; stroke: orange; stroke-width: 2" x1="400" x2="414.8" y1="168" y2="165" />
			<line style="fill: orange; stroke: orange; stroke-width: 2" x1="414.8" x2="429.6" y1="165" y2="162.222222222222" />
			<line style="fill: orange; stroke: orange; stroke-width: 2" x1="429.6" x2="437" y1="162.222222222222" y2="160.909090909091" />
			<line style="fill: orange; stroke: orange; stroke-width: 2" x1="437" x2="444.4" y1="160.909090909091" y2="159.642857142857" />
			<line style="fill: orange; stroke: orange; stroke-width: 2" x1="444.4" x2="459.2" y1="159.642857142857" y2="157.241379310345" />
			<line style="fill: orange; stroke: orange; stroke-width: 2" x1="459.2" x2="474" y1="157.241379310345" y2="155" />
			<line style="fill: orange; stroke: orange; stroke-width: 2" x1="474" x2="548" y1="155" y2="145.714285714286" />
			<line style="fill: orange; stroke: orange; stroke-width: 2" x1="548" x2="607.2" y1="145.714285714286" y2="140" />
			<line style="fill: orange; stroke: orange; stroke-width: 2" x1="607.2" x2="622" y1="140" y2="138.75" />
			<line style="fill: orange; stroke: orange; stroke-width: 2" x1="622" x2="646.716" y1="138.75" y2="136.796256299496" />
			<line style="fill: orange; stroke: orange; stroke-width: 2" x1="646.716" x2="649.232" y1="136.796256299496" y2="136.606118546845" />
			<line style="fill: orange; stroke: orange; stroke-width: 2" x1="649.232" x2="687.934" y1="136.606118546845" y2="133.864582161737" />
			<line style="fill: orange; stroke: orange; stroke-width: 2" x1="687.934" x2="696" y1="133.864582161737" y2="133.333333333333" />
			<line style="fill: orange; stroke: orange; stroke-width: 2" x1="696" x2="726.636" y1="133.333333333333" y2="131.427660930529" />
			<line style="fill: orange; stroke: orange; stroke-width: 2" x1="726.636" x2="770" y1="131.427660930529" y2="129" />
			<line style="fill: orange; stroke: orange; stroke-width: 2" x1="770" x2="770" y1="129" y2="30" />
		</g>
	</g>
	<text fill="orange" stroke="orange" x="50" y="110">Slant-6-45-250 effective rate</text>
	<!-- 
	Generated using the Perl SVG Module V2.78
	by Ronan Oger
	Info: http://www.roitsystems.com/
 -->
</svg>